<?xml version="1.0" encoding="UTF-8"?>
<svg xmlns="http://www.w3.org/2000/svg" version="1.1" viewBox="0 0 312.09 362.37">
  <defs>
    <style>
      .cls-1 {
        fill: none;
        stroke: #000;
        stroke-width: .84px;
      }

      .cls-2 {
        fill: #fde338;
      }

      .cls-3 {
        fill: #fbe136;
      }
    </style>
  </defs>
  <!-- Generator: Adobe Illustrator 28.6.0, SVG Export Plug-In . SVG Version: 1.2.0 Build 709)  -->
  <g>
    <g id="Layer_3">
      <g>
        <polygon points="8.63 310.89 8.98 356.81 308.97 362.37 307.12 306.81 8.63 310.89"/>
        <path d="M144.15,303.01c2.12,0,4.11-.58,5.85-1.53,1.75.95,3.72,1.53,5.83,1.53h48.72c2.17,0,4.18-.61,5.95-1.59,1.81,1.02,3.88,1.59,6.06,1.59h22.5c3.24,0,6.19-1.26,8.39-3.31,5.44,2.38,12.51,3.93,21.74,3.93,33.99,0,39.05-21.49,39.05-34.29v-18.42c0-8.01-2.52-14.86-8.38-22.24,4.86-1.66,8.38-6.21,8.38-11.63v-32.13c0-13.84-5.85-25.34-16.48-29.74V12.75c0-6.83-5.61-12.33-12.43-12.33h-29.66c-2.38,0-4.61.69-6.49,1.86-1.91-1.18-4.12-1.86-6.48-1.86H12.78C5.94.42.42,5.83.42,12.65v30.48c0,6.82,5.52,12.36,12.36,12.36h20.77v99.26H14.2c-6.81,0-12.34,5.53-12.34,12.36v24.58c0,6.82,5.54,12.36,12.34,12.36h12.76v86.61c0,6.82,5.53,12.35,12.35,12.35h104.84"/>
        <path class="cls-1" d="M144.15,303.01c2.12,0,4.11-.58,5.85-1.53,1.75.95,3.72,1.53,5.83,1.53h48.72c2.17,0,4.18-.61,5.95-1.59,1.81,1.02,3.88,1.59,6.06,1.59h22.5c3.24,0,6.19-1.26,8.39-3.31,5.44,2.38,12.51,3.93,21.74,3.93,33.99,0,39.05-21.49,39.05-34.29v-18.42c0-8.01-2.52-14.86-8.38-22.24,4.86-1.66,8.38-6.21,8.38-11.63v-32.13c0-13.84-5.85-25.34-16.48-29.74V12.75c0-6.83-5.61-12.33-12.43-12.33h-29.66c-2.38,0-4.61.69-6.49,1.86-1.91-1.18-4.12-1.86-6.48-1.86H12.78C5.94.42.42,5.83.42,12.65v30.48c0,6.82,5.52,12.36,12.36,12.36h20.77v99.26H14.2c-6.81,0-12.34,5.53-12.34,12.36v24.58c0,6.82,5.54,12.36,12.34,12.36h12.76v86.61c0,6.82,5.53,12.35,12.35,12.35h104.84Z"/>
        <g>
          <path class="cls-2" d="M91.15,270.95s-.18-.07-.36-.14c0-.04,0-.11,0-.11,0-.06,0-.12,0-.18,0-.59-.07-1.13-.34-1.52.04-.17.09-.37.09-.37l.07-.75s-.09-.06-.18-.14v-.02c.13-.27.24-.56.24-1.11v-.1s-.31-.09-.63-.18h0c0-.05.02-.13.04-.16.02.02.1.04.1.06l-.05-.1s-.02-.04-.03-.05c.14-.49.47-1.61.47-1.61l.34-1.2s-.15-.12-.23-.2l.2-.67c.01-.12.01-.24.01-.33,0-.58-.16-1.03-.29-1.36-.09-.26-.14-.39-.14-.5,0-.03,0-.07.02-.1,0,0-.16-.13-.27-.21.02-.31.07-1.26.08-1.28.29,0,.57.01.57.01l.19-.86.18-.3-.12-.39s-.24-.73-.45-1.33v-.05c.22-.39.26-.98.28-1.55,0,0,.01-.42.03-.6h.04s-.03-.15-.03-.23c0-.22.02-.44.02-.44,0,0-.08.03-.08.03-.04-.22-.08-.44-.08-.44l-.12-.94s-.06-.24-.11-.48c.06-.08.12-.12.17-.24l.14-.28s-.12-.4-.14-.43c.11-.22.14-.49.15-.63l.02-.34s-.09-.11-.18-.19c-.04-.09-.12-.42-.12-.83v-.1l.08-.04-.04-.35c0-.19-.03-.42-.09-.62,0,0,.04-.04.04-.04,0,0-.11-.18-.19-.3l.03.03.24-1.14c.07-.22.14-.46.19-.71.03-.03.11-.05.11-.05,0,0-.04-.12-.07-.25.03-.22.07-.44.07-.72,0-.33-.03-.7-.12-1.12h-.6c.02-.12.05-.18.11-.21,0,0,.04-.02.04-.03h-.38v-.11s.05-.02.07-.02c.15-.02.26.04.36.1.1-.05.28-.15.28-.15l-.03-.4-.1-1.41c-.04-.28-.09-.51-.09-.79,0-.14.02-.31.05-.5,0,0-.33.25-.54.42v-.23c.11-.38.27-.94.27-.94.13.06.21.26.21.37l.03-.19c.04-.15.07-.38.07-.62,0-.27-.08-.58-.21-.9.05-.08.13-.2.13-.2,0,0-.3-.21-.5-.36v-1.25c.33-.05.88-.11.88-.11.13-.43.17-.77.17-1.07,0-.33-.06-.59-.14-.86-.04-.18-.09-.33-.09-.57,0-.18.02-.41.09-.72l.11-.51-.45-.31c0-.05.04-.12.04-.16l.05-.21-.08-.2c-.1-.38-.27-.52-.45-.59.03-.03.09-.06.11-.09l.21-.31s-.07-.24-.11-.37c0,0,.06-.44.06-.44l.08-.73s-.16-.02-.23-.04v-.04c-.03-.14-.08-.37-.19-.57.06-.15.1-.34.12-.47l.05-.22c.1-.09.22-.21.22-.21l-.07-.61c-.15-.34-.27-1.07-.36-1.74,0,0-.03-.08-.04-.2v-1.09l.09-.87c0-.08,0-.14,0-.21,0-.24-.04-.42-.09-.56v-2.55c0-.06.04-.1.05-.17l.18-.47.28-.35-.17-.41c-.09-.29-.14-.49-.14-.66,0-.25.09-.42.22-.68.17-.36.39-.83.39-1.55,0-.17-.01-.38-.05-.6-.04-.2-.12-.5-.28-.75.02-.1.06-.19.06-.3,0-.14,0-.27-.03-.34-.02-.1-.02-.16-.02-.21,0-.05,0-.08.02-.13,0,0-.25-.15-.52-.3v-.35l.37.49c.01-.19.02-.35.02-.49,0-.46-.05-.74-.13-1.01-.03-.14-.07-.28-.07-.57,0-.2.03-.49.06-.91l.02-.19-.1-.36c-.05-.13-.12-.2-.17-.3v-.03c.05-.14.1-.29.1-.29l.42-1.36s-.31-.34-.52-.59v-1.55c.11-.17.19-.36.19-.56,0-.26-.05-.48-.09-.66.22.04.45.08.45.08l-.19-1.43c-.09-.56-.19-1.33-.03-1.81,0,0-.16.06-.34.11v-.05c.24-.28.51-.56.51-.56-.04-.07-.06-.1-.06-.18,0-.05.02-.13.03-.25.02-.18.05-.35.05-.55,0-.4-.12-.87-.53-1.39v-.86h-.88l-.15-.12-.66.02s-1.01.06-1.45.1h-.16c-.18-.09-.72-.32-.72-.32l-.16.04c-.22.04-.46.1-.67.22-.15-.13-.36-.29-.36-.29,0,0-.1.17-.19.36h-.93c-.06-.01-.11-.04-.16-.04l-.17-.02s.06.03.1.06h-.35l-.19-.29s-.3.13-.65.29h-3.59l-.31-.3-.36-.06-1.1.36h-2.69l-.31-.29s-.12.04-.19.07c-.03-.21-.06-.43-.06-.43l-.7.28c-.53.25-.85.18-1.33.06-.42-.09-.95-.21-1.67-.06,0,0,0,.11,0,.13-.09-.08-.19-.16-.19-.16l-.38.39s-.01,0-.01.01h-1.01v1.15c-.07.1-.11.22-.11.31,0,.04.03.07.04.12-.02.12-.05.24-.05.24l-.12.68.06.16.17.41v2.42l-.02.09-.39.37.4.53v2.22h-.07s0,.22-.01.36c-.02,0-.11.05-.11.05,0,0,.04.22.1.4-.03,0-.16.02-.16.02,0,.07,0,.15,0,.22,0,.54.13,1.03.24,1.42,0,.01.01.03.02.04v1.23l-.1.24s.05.05.1.12v2.93c-.08,0-.14.02-.14.02-.05.16-.06.33-.06.49,0,.34.08.71.16,1.09.02.04.02.09.03.15v1.01c-.17.13-.43.34-.43.34l.3.41.12.32.02.02v.72l-.21.73h.21v1.37c-.03.11-.03.22-.07.3l-.14.35s.09.16.21.36v8.64h-.02s.02.02.02.02v62.46h3.14c-.1.14-.22.3-.22.3,0,0,.21.06.4.13h0s.03.01.03.01l.49.17c.46.15.73.12.98.02-.03.24-.06.46-.06.46l2.59-.39s-.19-.46-.29-.71h.23c.17.09.33.17.33.17,0,0,.06-.06.09-.09.12.29.26.67.26.67,0,0,.15-.16.28-.34.17.09.69.37.69.37h.16c.58-.05.98-.26,1.31-.49.16,0,.84-.03.84-.03.39-.02.67.14.71.19-.03-.04-.07-.16-.07-.28,0-.02.02-.06.02-.08h.14c.15.24.55.91.55.91l1.01-.23.11-.07c.21-.17.33-.42.35-.7h7.56v-4.7s.09-.04.14-.08c.08-.06.1-.15.15-.23.05,0,.1.02.16,0l.5-.07.05-.57c.02-.24.03-.48.03-.74,0-1.2-.18-2.75-.38-4.35,0,0-.27-2.59-.33-3.25.1-.08.27-.19.27-.19-.1-.61-.16-1.34-.16-2.07,0-1.09.12-2.16.38-2.76l.31-.71"/>
          <path class="cls-2" d="M180.56,288.57l-.35-2.58c.41.86,1.24.41,1.26,2.28-.77-1.7-.51.2-.91.3M151.15,278.9c-.07-.08-.19-.11-.35-.14h.54l-.2.14ZM144.57,287.76s-.06-.09-.09-.12l.04-.35.05.48ZM142.63,290.99l-1.11-.32h1.67c-.15.1-.32.22-.56.32M132.22,290.7c-.35.05-.55,0-.71-.04h1.47c-.19.06-.45.1-.76.04M122.35,281.44c.03.15.1.21.17.24l-.27,2.12c-.03-.76-.03-1.54.1-2.37M123.5,271.93l.31-.31-.17,1.29c-.08-.25-.14-.56-.14-.99M126.57,248.57l.1.57-.21,1.58c.05-.73.09-1.44.11-2.15M126.91,247.23l-.17,1.32c.02-.49.09-.92.17-1.32M127.45,242.95l-.08.72c-.05-.29-.12-.61-.23-.93l.32.21ZM127.94,239.15l-.24,1.85c-.06-.61-.05-1.24.24-1.85M127.9,238.2c-.11-1.08,0-1.7.32-2.71.21-.05.02.49.03.82.07-.1.08-.22.09-.35l-.37,2.97-.19.08c.06-.4.2-.54.26-.95l-.14.15ZM128.32,234.2c.16-.35.23-.27.27-.14l-.24,1.8c.02-.46-.13-1.08-.04-1.66M130.38,218.9c.06,0,.1-.03.16-.03l-.1.68c-.05-.21-.07-.41-.06-.65M133.08,197.44c.09-.52.19-.84.31-1.01l-.18,1.4c-.05-.07-.1-.19-.13-.39M136.52,195.88c2.41.1,1.92-.38,4.17-.54,1.15.65-2.24.02-.26.54-.52.11-.96.17-1.38.24h-2.72c-.18-.07-.18-.15.19-.24M153.72,196.06v.06h-.07s.03-.04.07-.06M157.76,196.12h-1.57c.52-.07,1.07-.09,1.57,0M161.12,195.32c.42.14.32.38.32.51-1.04-.17-1.49.03-1.94.29h-1.2c.11-.47,1.75-.74,2.83-.79M165.07,196.12h-.77c.2-.04.46-.05.77,0M147.46,259.14c-.05-.22-.12-.15-.23,0h-.33v-.4c.03-.3.07-.77.14-1.34.19.13.23.59.13,1.04.54-.25,0-.89.44-1.72-.06.07-.18.38-.27.12.35-2.14-.3-1.25.29-4.01-.04-.18-.07-.34-.1-.47.04-.43.08-.86.13-1.31.17-.32.27-.42.65-1.62-.12.03-.3.19-.53.34.11-1.08.23-2.22.33-3.41.18-.18.15-.57.11-1.02.04-.41.08-.84.11-1.25l.39.12c0-.89-.18-2.45.32-3.53l.23.28c-.16-2.29.29-4.91.29-6.86l.44-.99c-.1-2.11-.33.68-.69,1.02.1-.99.19-1.97.28-2.9.01.39.03.79.3.4-.45-.38-.06-.81-.11-1.63.44.22.23-1.67.69-1.12l-.43-2.29c.05-.45.08-.89.12-1.32.06-.29.08-.61.1-.91.02-.21.04-.4.06-.59.33,2.36.63,5.27.65,7.61.66.29.16,2,.73,2.46-.2.09-.35.34-.56.42.31,2,.31-.49.59-.02.16.88-.15,1.61-.39,1.55.09,1.45.18.16.59.85l-.62.99c.62,4.47,1.61,10.38,1.67,15.53l.39-.42c-.02,1.16.3,2.1.54,3.02.08.86.14,1.57.2,2.11-.03.25-.1.51-.18.77l.29.48h-6.77ZM150.67,220.89s-.05.02-.07.02c.03-.26.04-.44.05-.49,0,.05,0,.22.02.47M153.16,247.76c.01.17.03.34.05.51-.05-.02-.08-.03-.15-.02.03-.2.07-.36.1-.49M151.48,229.82c0,.12.02.27.03.42-.07-.07-.13-.16-.21-.31.08-.04.13-.08.18-.11M151.13,227.05c.02-.08.05-.11.07-.13.05.55.11,1.11.16,1.72-.17-.45-.34-.96-.23-1.59M145.56,278.85s-.05-.03-.08-.03v-.05h.17s-.07.06-.09.09M152.58,241.76s.01.06.03.08c.13,1.44.27,2.85.41,4.24-.13.09-.27.18-.41.18.37-2.74-.34-2.74-.03-4.5M178.45,272.28c-.05-.07-.1-.12-.17-.16l-.07-.53c.08.23.17.46.23.69M179.56,278.02l-.47-.14-.15-1.1c.21.03.41.06.62,1.23M180.42,285.42c-.06.15-.12.44-.24.29l-.16-1.18c.12.32.26.62.41.9M181.59,289.64c.2-.74.17.45.36-.29l-.43-.94c-.04-.74.42.7.3-.44-.18-.11-.52-1-.62-1.88l.14.24c-.22-.66-.21-1.65-.66-1.24l.37-.86-.31.18c-.15-1.89.57-2.68-.22-5.03-.03.58-.29.09-.39-.22-.09,1.05.43,1.2.63,2.15-.3.16-.86-1.12-.99-.43.12-1.2-.38-2.18.34-2.79-.16-1.54-.68-2.04-.71-3.63l.14.02c-.6-.2.07-1.28-.68-2.35v.83c-.24,0-.31-.39-.42-.94q.09.05.17-.15c-.16-.05-.32-.33-.45-.67l-.68-4.89.29-.51c.02.49.18.94-.05.93.36.56.49.27.67-.12.29,1.24.07,1.47.64,2.38.21-2.16-.71-1.7-.6-4.15l-.98-.54c-.04-.98.4.22.45-.72-.36-.75-.41.49-.71.53l-.28-1.97c.19-.05.37-.19.42-.29-.21-.35-.06-1.24-.15-1.87-.1,1.6-.39-1.19-.55.13l-.15-1.16c.23-.1-.03-1.1.29-1.34-.28-.46-.53-1.31-.78-2.17l-1.43-10.3c.19-.67.49-1.29.16-2.52-.33-1.13-.39-.33-.52,0l-.25-1.83c.09.19.15.47.14.76.49-.37-.17-.88.07-1.78-.06.09-.1.41-.24.18-.06-1.03-.2-1.34-.32-1.68l-.28-1.99c0-.11,0-.21,0-.31-.02-.05-.04-.08-.05-.13l-.25-1.78c.08-.26.15-.52.24-1.55-.1.05-.23.22-.4.4l-.47-3.35c.15-.22.01-.65-.15-1.12l-.15-1.14.43.03c-.19-.88-.71-2.37-.46-3.51l.28.21c-.64-2.21-.77-4.85-1.19-6.74l.2-1.08c-.64-2.37-.02,1.76-.65,1.11l-.06-.42c.29-.25.06-.66-.18-1.23l-.23-1.61c.26-.49.36,1.54.68.74-.52-.28-.23-.8-.46-1.57.47.12-.14-1.69.44-1.25l-1.18-2.73c.2-.48.07-1.3-.08-1.89.09.69-.06.67-.23.62l-.52-3.72c.17-.38.33-.84.43-.89-.26-.94-.58-1.64-.88-2.3l-.21-1.53.11-.02s-.08-.06-.12-.11l-.32-2.32c.14.15.28.27.46.25l-.41-1c.13.15.15-.02.17-.19-.59-.52-.89-.77-1.03-.87.04.01.07,0,.02-.12-2.02.61-2.81-.24-4.91.04l1.16.08c0,.28-.67.25-1.18.34-.57-.39-.89-.34-1.98-.52-.91.22-1.42.73-2.67.72.27-.53-2.07-.29-2.3-.74-.26.54-2.42.19-2.6.49-.67.12-1.58.06-1.57-.22.1-.02.3-.07.51-.1l-.66-.02.11-.11c-.59-.01-.59.38-1.36.11.01-.14.42-.14.76-.19-1.58-.09-2.77.8-4.08.33-.24.23-1.8.27-1.73.72h-.16c-.27-.24-.34-.53-1.44-.46-.77.47-1.49-.18-2.5.13,1.35-.5,0-.14,1.17-.62-.9-.19-2.25.45-3.83.36-.16-.12-.16-.26-.32-.36-.59.16-1.26.55-1.83.16l.07.34c-.54-.09-1.18-.11-1.83-.15-2.47.98-.93,1.35-1.73,1.96l.49,1.37c-.89,1.57-.66,3.79-.29,5.25l-.14,1.13c-.11.38-.23.68-.3.66-.05-.15-.11-.41-.16-.72-.16.93-.69,2.03-.2,2.62.02.98-.49.64-.68,1.35.51,2.04-1.35,5.65-.26,6.4.12-.8.56-2.27.72-3.8,0,.05.02.08.03.1l-.56,4.34-.61-.22c-1.12,2.51.33,5.1-1.03,6.99-.01,1.22-.11,2.84.14,3.76l-.22-.12c.01.38.05,1.22.17,1.64l-.23,1.87c-.04-.32-.1-.65-.25-1.02-.15-.19-.41.59-.36-.31-.51,1.55-.32,2.88-.27,4.36l.06-.39c.76,1.26-.33.83-.19,2.73-.31-.53-.18-1.33-.35-1.67-.99,2.04.12,3.12-.97,4.4v-.16c-.14.3-.05.88-.04,1.38.15-.14.27-.6.4-.92,0,.5.38.8.53.99-.48.49.1.75-.22,1.59-.42.26-.25-.76-.39-1.11l.1,1.07c-.1.95-.52.89-.79,1.34.16.84.27-.45.57.26-.59.93-1.05,5.06-1.02,7.26-.04-.4-.33-.19-.18-.94-.12.3-.08,1.45.21,1.49.04,1.47-.39,3.27-.84,4.59l.33-.36c.34,1.19-.75,2.81-.74,4.86v-.06c-.02.66.61,1.3.3,2.48-.29-.38-.18-1.02-.53-.99l.21,1.83c-.27.27-.27,2.31-.58,1.6.36,1.07-.34,3.07.3,2.72l-.07.61c-.08.06-.16.09-.16.35l-.31-.7c-.16.58.07,1.31.32,1.51l-.07.55c-.04-.08-.14-.09-.31.05-.07.06.24.6.04,1.15l-.22-.12-.09,1.29-.23-.44c-.53,1.36.25,1.41.25,2.49l-.1.79c-.02.06-.02.08-.03.16l-.57-.09c-.22,1.44-.14,2.17-.65,3.39,0,0,.28.04.21-.2.06-.24.34-.52.47-.34.16,2.23-.29-.38-.74,1.11.14,1.89,0,5.45-.61,6.41.31-.55.49-.12.53.52l-.14,1.14c-.19.14-.22-.49-.35-.67-.13.47-.33.84-.31,1.34.23-.32.43-.32.58-.07l-.43,3.38h2.96c-.22.06-.41.14-.56.25,1.38.32.86-.24,2.38-.1l-.08.45,1.47-.15c-.17-.19-.26-.34-.3-.45h.35s-.03.06-.03.1c.03-.03.08-.06.12-.1h2.97-.02l1.06.37c.66-.02,1.19-.19,1.62-.37h3.02c.57.15.9.42.72.62l1.39-.19c.21-.11.19-.27.05-.43h2.86l.41.56c.52.19,1.06-.49,1.39-.05.18.26-.36.32-.74.39.21-.05.47-.02.75.01h.01c-1.29,1.12,1.75-1.5,1.45-1.24h0v-.03s.01-.04.01-.04l.03-.11.06-.22.16-.46c.2-.66.44-1.41.5-2.24.09-1.14-.33-1.41-.68-1.78l.23-2.04c.39-.41.31-1.07.19-1.7l.23-2.09c.1.16.19.75.57.28-.1.63-.24.65-.38,1.52.38-.59.49-1.31.5-1.98,2.29-.21,4.91-.52,7.28-.68h.47l-.39.34c.43-.06.92-.1,1.43-.13.06.33.1.66.04.7.04,1.29-.04,2.52-.3,3.36.35-.41,0,3.02.81,2.66-.15.53-.11.68-.14,1.42l.28.19c.06,1.04-.36.89-.26,2.09.17-.46.3-.37.44-.16l.08,1.43h1.6c1.07.43,2.15.32,3.06.73-.1-.11-.22-.23-.64-.39.84.11.7-.2.93-.33.82-.02.74.43.7.67,1.52.13,2.2-.72,3.33-.44l-.26-.24h2.27c.69.06,1.4.13,2.21.06.84.48-1.42.43-2.13.64.34.1,1.09.13,1.33.29.74-.26,1.98-.59,2.9-.83-.88.57,1.32.54,1.9.57-.09-.24-.53-.34-1.44-.3.11-.31,1.29-.26,1.83-.42,0,0-.01,0-.03,0h5.49c.05.11-.04.22-.68.23.51.06.3.3.26.53.65-.12,1.14-.15,1.57-.18l.62-.06h.07s.04-.02.04-.02h.03c.59-.66.88-.97.99-1.11l-.05-.15-.13-.26Z"/>
          <path class="cls-2" d="M62.31,200.93v-1.2c.04.4.04.79,0,1.2M62.51,207.23c-.09,0-.15.03-.2.09v-.21c.07-.06.13-.05.2.11M63.29,216.07c-.16.5-.39.39-.54.39.21-1.48-.12-1.97-.44-2.62v-4.89c.16,1.1.36,2.55.03,3.73.57-.18.88,2.01.95,3.39M62.41,221.2l-.1-.06v-1.82c.18.43.29.91.1,1.88M62.85,195.02c.04.24.07.32-.05-.13.02.06.04.09.05.13M62.35,252.84s-.03.03-.05.05v-.16s.03.08.05.11M62.31,254.34v-1.07s.04.03.05.07c.03.37,0,.71-.05,1M62.31,256.39v-.16s.03.05.04.09l-.04.08ZM62.38,276.26c-.24,2.86,1,4.81.03,7.34l.39.88c-.11-.25-.3-.11-.49-.01v-8.13l.07-.08ZM62.31,286.79v-.97c.05.35.04.69,0,.97M38.49,191.96h-.05c-.09-.08-.19-.15-.28-.21h.28s.04.03.05.04v.17ZM37.97,191.76v.07s-.31-.07-.31-.07h.32,0ZM26.99,191.77c-.3.02-.51.02-.68-.02h1.42c-.2.04-.46.04-.75.02M38.49,274.03c-.1-.39-.25-.78-.29-1.41.1-.04.2.06.29.22v1.19ZM79.55,186.89c.11-.14.21-.31.25-.66-.16-.49-.23-1.22-.25-2.08v-1.48c.05-2.55.31-5.55,0-6.96v-1.44c.3-1.32.17-2.58,0-3.81v-3.23h-.49v-.22h-.19c-.25-.33-.62-.54-1.24-.51-1.36.13-3.14.25-4.34.51h-.43l.06-.09c-.19.02-.42.05-.71.09h-2.74c-.67-.06-1.32-.05-1.94,0h-4.11c-2.72-.63-3.92.54-5.73-.34l.2-.03c-.41-.09-1.14.07-1.77.16.16.09.56.14.93.21h-4.4c-.1-.07-.22-.14-.38-.18-.34.08-.4.13-.34.18h-6.42c0-.21.2-.42.64-.6-1.1-.16-9.07.11-10.17.22.16.12.56.26.9.38h-15.38c-.86-.11-1.67-.24-2.38-.35-.66.09-.98.21-1.1.35h-1.04c.12-.04.24-.07.35-.08.54.21.53-.33.53-.33-1.43.33-2.56.39-3.74.39h-.44c0-.09-.01-.16-.01-.25l-.05-.92-.02-.26h0c-.94,1.13,1.68-2.05-1.15,1.39l.84-.05v.07l-.85-.02s-.02.03-.03.05h-.11v.13c-.31.35-.63.77-1.05,1.28h.04s.05-.01.05-.01h.11s.44-.03.44-.03c.13-.01.27-.01.41-.01v4.02c-.05.37-.06.85,0,1.55v.08l-.04-.38-.12,3.52.17-.06v14.16h.11v.52h4.47c-.19.05-.36.12-.5.21,1.74.31,1.09-.24,3.01-.09l-.11.45,1.84-.14c-.19-.18-.29-.31-.36-.42h4.37l1.19.33c.78-.02,1.4-.16,1.91-.33h4.08c.62.17.95.39.75.59l2.78-.2c.25-.1.05-.24-.3-.39h1.74l.46.54s.08.01.12.01v.05c-.15.83-.29,1.79-.24,2.82.04,1.34.46-1.77.85-1.39v.72s-.05-.06-.06-.09l.06.38v1.72c-.2.47-.13,1.04,0,1.63v2.73c-.11-.25-.26-.53-.51-.06.01-.79.16-.83.2-1.92-.68,1.74-.05,3.92.11,5.03.07-.32.25-.4.2-1.01v3.88c-.03.48-.06.96-.2,1.12-.35-.63.14-1.82-.31-1.72-.14,2.11.19,5.42.51,8.83v11.7c-.08.65-.19,1.22-.34,1.69.31-.39-.03,2.47.34,3.2v3.84c-.04.22-.06.49-.05.86.01-.04.03-.08.05-.12v4.04c-.13.64-.25,1.26-.37,1.8.1-.1.23-.25.37-.67v1.88c-.11,0-.23,0-.32,0-.06.94.15,1.63.32,2.23v6.83c-.17-.48-.19-2.01-.34-2.62-.12.41-.14,1.31-.31,1.6.19.63.44,1.6.65,2.51v.72c-.37-.1-.35,1.91-.38,2.51.26-.12.37-.64.32-1.72.02,0,.05.04.06.07v3.73c-.09-.01-.17-.07-.27-.08.21,1.18.17,1.94.27,2.65v.93c-.09,0-.03-.65-.26-.02l.26,1.12v.32c-.09.35-.29-.99-.35.27.17.17.38,1.31.34,2.42l-.1-.33c.06.48.05,1.07.11,1.41v.96l-.14.27.14-.07v1.42c-.28,1.36-.65,2.4-.34,4.64.1-.63.26-.19.34.17v1.33s-.07.1-.13.14c-.02.89.06,1.52.13,2.12v2.4l-.09-.04s.06.08.09.1v8.6h.82v.82h.94c.08.1.26.18.47.28-.4.02-.74.03-1.02.02h-.17c.16.14-.72-.68-1.17-1.12v-.53c0-.4-.05-.78-.27-1.37-.14.64-.18,1.1-.17,1.49l.02.25v.13s.01.03.01.03c.24.23,2.86,2.71,1.58,1.51h.04l.06-.02.47-.09c.62-.1.26-.22,1.83,0l.59-.58h.68c-.07.08-.06.17.43.24.38-.08.41-.16.3-.24h3.49c.33.04.68.08.98.08-.2-.03-.33-.05-.43-.08h3.5s.04.02.05.04c.04-.02.1-.03.14-.04h9.16v-.82h1.48v-1.52c.29-.18.54-2.07.82-2.43-.84-3.01.8-3.04.45-5.92-.26-1.8-.42.19-.65.08,0-1-.3-1.99-.11-2.78.23.11.32.71.26,1.3.55-.39-.07-1.1.27-2.18-.05.1-.15.49-.26.19.12-2.67-.43-1.5-.13-4.96-.15-.5-.15-1-.49-.91.44-1.97.44-.98.83-3.35-.19.09-.58.71-.99.82v-.84c.36-2.5-.19-2.75.24-4.67.02.24.14.52.08,1.1.62-.29-.12-1.8,0-2.98l.54.11c-.09-1.09-.44-2.98-.04-4.36l.26.3c-.41-2.78-.23-6.05-.42-8.43l.33-1.28c-.4-3.3-.17,3.25-.98.85.98-.35-.32-1.7.07-3.55.39-.89.2,1.88.65.89-.5-.4-.15-.99-.29-1.98.47.21.07-2.09.6-1.47l-.87-3.51c.27-.57.22-1.58.16-2.33,0,.83-.14.83-.32.74v-2.79c.28.15.87-1.47,1.07-1.56-.22-2.09-.71-3.29-.94-4.89l.52.02c-.27-.27-.46-1.45-.64-1.53v-1.19c.04-.18.05-.41,0-.76v-.21c.5.15.57,1,1.01,1.02l-.28-1.3c.21.4.19-.79.39-.38-.64-2.4.25-3.37-.03-5.86l-.1,1.38c-.3,0-.27-.8-.35-1.4.42-.69.36-1.07.54-2.36-.23-1.1-.76-1.71-.76-3.21.57.33.3-2.46.78-2.74-.56-.33-.19-2.88-.53-3.09-.11-.81-.05-1.89.25-1.88.02.12.07.35.1.6l.02-.79c.07.06.11.04.12.13.01-.71-.39-.71-.12-1.62.16.01.14.52.21.91.09-1.89-.85-3.32-.35-4.87-.25-.33-.28-2.5-.87-2.02.17-.48.51-.44.59-1.25,0,.02.02.04.03.04,0-.05-.02-.11-.02-.18.01-.14.01-.31,0-.5.01-.41.02-.72-.1-.24-.1-.11-.1.05-.07.27-.01.08-.03.14-.05.24.04-.83-.24-1.6-.4-2.25v-.78h.41c.01.1.03.17.03.26-.15.14-.25.25-.34.33,0-.02,0,0-.1.1h.03c.15-.03.31-.07.46-.12.03.12.05.24.08.35.08.33.16.66.25,1.16.02-.36.02-.67.06-.92-.07-.04-.12-.19-.12-.66.53-.15,1.07-.23,1.56.03l-.09-.34c1.35.18,3.23.06,4.68.44l1.67-.64h.06c1.54.46,3.42.33,5.03,0h3.57v-1.53c.07-.63.12-1.26,0-1.73v-1.61Z"/>
          <path class="cls-2" d="M12.4,166.95v-1.41c-1.94,2.78.07.78-.12,1.41h.16s0,0,.01-.01h-.05"/>
          <path class="cls-2" d="M170.82,190.7v-2.06c.03.09.08.25.12.44-.07.76-.09,1.28-.12,1.62M137.15,192.35c-.55-.14-.44-.37-.43-.51.99.12,1.57.06,2.04-.09h1.9c-.56.34-2.32.55-3.51.59M120.36,246.07v-3.84c.14,1.28.25,2.51,0,3.84M120.36,247.66v-.37l.17.52c-.05-.13-.11-.17-.17-.15M120.42,286.68c-.02-.06-.03-.1-.05-.14v-.39c.02.18.03.36.05.54M128.54,167.17l-.03.05h-.11s.09-.03.13-.05M137.97,167.22h-2.64c.92-.14,1.69-.11,2.64,0M140.26,167.22h-.64c.16-.03.32-.04.49-.04.07.02.1.02.16.04M171.71,188.89l-.61-1.86c.55-2.16.18-5-.28-6.99v-2.91c.02-.07.04-.15.08-.13.05.21.13.56.22.99,0-.68.1-1.45.12-2.12l.31-1.4-.3.16c.04.35.04.71,0,1.05,0-.58-.04-1.08-.26-1.42-.15-1.38.34-4.45.43-5.48l-.19-1.14c-.86-1.5-.94-.37-1.47-.72l-2.64-.1c-1.65-.09-1.4-.13-1.74.4h-.77l.1-.3c-2.64-.55-5.11.27-7.33.3h-.05c-.74,0-1.44-.09-2.13-.35-1.1.09-2.44.19-3.57.35h-5.23c.21-.06.42-.14.65-.22.23-.17-.85-.31.35-.39-2.15-.29-3.89.07-5.86.32h.54c-.25.13-.43.22-.61.29h-.87c-.41-.11-.95-.3-2.19-.1.65-.37,1.74-.37,2.18-.55-2.88-.67-4.14.51-6.03-.35l.21-.03c-.43-.08-1.19.08-1.85.16.22.11.86.17,1.29.26-.62.07-.96.43-1.18.61h-.11c-.41-.2-.67-.09-1.05,0h-1.05c-.32-.34,1.01-.32,1.44-.51l-1.41.24c-1.31.02-1.29-.4-1.94-.58-1.08.27.65.18-.23.57-1.34-.43-6.94-.33-9.86,0,.53-.1.18-.35,1.22-.29-.42-.1-1.95.1-1.96.37-1.96.24-4.44.07-6.27-.18l.54.28c-.14.04-.29.07-.44.09h-1.89c-1.24-.11-2.69-.32-4.27-.16h.07c-.23.02-.46.09-.69.16h-1.41c.08-.05.12-.11.1-.2l-1.07.2h-3.74s.06-.06.14-.09c-.1.03-.21.07-.32.09h-9.44c-.37-.05-.62-.04-.8,0h-1.97c0-.09,0-.18.01-.27v-.27s.01-.12.01-.12h0c-.28.29-.51.53-.72.75l.02.53h-.04l.02-.52c-.29.3-.49.52-.62.65.08-.08.11-.11-.07.07h0s.12.01.12.01l.46.03c.05,0,.08,0,.13,0v.28c0,.74-.03,1.45-.2,2.36,0,0,.27.02.17-.34.03-.34.23-.78.39-.55.01.02.01.02.01.03v1.21c-.16-.22-.42-.72-.54.44.36,2.64.67,7.67.23,9.12.11-.4.21-.47.3-.37v2.14c-.05-.16-.1-.32-.15-.39-.04.69-.18,5.71-.1,6.39.08-.24.16-.36.25-.4v3.31h-.13s.13.02.13.02v.4h1.42c-.04.06-.05.1-.01.16.29,0,.65-.09,1.03-.16h1.54c-.57.15-1.4.19-1.85.48,1.81.31,1.14-.24,3.11-.11l-.1.45,1.9-.14c-.4-.35-.45-.55-.51-.69h.7c-.1.12-.18.22-.17.32.11-.11.49-.22.61-.32h1.23c-.14.07-.29.13-.24.16l.34-.16h1.58s.03,0,.03,0h1.93v1.41c-.18-.17-.33-.42-.39-.72-.08.19.12.56.39.99v5.26s0,0,0,0v1.48c-.18.01-.23-.6-.29-1.06.13,1.17-.46,3.19-.38,5.57.04,1.39.35,1.83.67,2.23v1.51l-.04-.03-.23.29.27-.17v2.04c-.03.26-.03.56,0,.85v3.53c-.09-.17-.2-.24-.36.16.02-.91.15-.94.18-2.21-.62,2.01-.05,4.52.1,5.79.01-.13.04-.23.08-.32v4.6c-.01.14-.05.24-.09.29-.3-.72.12-2.09-.26-1.99-.11,2.16.11,5.41.35,8.86v15.51c-.06.43-.12.84-.21,1.18.24-.41.03,2.14.21,3.3v10.86c-.08.52-.16,1.02-.25,1.48.06-.1.15-.22.25-.46v1.86c-.07,0-.13-.02-.19-.04-.06.89.06,1.56.19,2.16v7.71c-.07-.76-.1-1.91-.21-2.43-.1.48-.12,1.49-.28,1.82.15.61.33,1.51.49,2.39v1.34c-.24.31-.23,2.23-.25,2.85.12-.07.2-.3.25-.68v3.03s-.1-.05-.15-.05c.08.64.13,1.19.15,1.66v2.13s-.06.06-.15.31l.15.8v.56c-.12-.13-.1-.1,0,0v.19s-.04-.03-.05-.07c0,.03.04.04.05.07-.01-.02-.02-.03-.05-.07-.16-.18-.1-.08,0,0-.04-.1-.08-.18-.1-.12l-.03.05v.08s-.04-.02-.06-.05c.02.02.04.03.06.05.18.2.1.11,0,.03.06.04.11.11.18.17v2.92h21.52v-2.44c.14-.16.35-.37.64-.68h0s0-.09,0-.09l-.03-.29-.15-.6c-.33.52.48.39-.45,1.25v-.08c.53-.53-.05-.16.14-.43-.04-.26-.04-.59-.07-.99q.08.11.18-.16c-.12-.08-.19-.38-.26-.74v-7.31l.33-.64c-.05.69.04,1.36-.18,1.3.26.85.41.47.6-.03.11,1.79-.12,2.08.27,3.46.48-2.98-.41-2.51.02-5.94l-.81-.94c.09-1.39.32.37.49-.92-.21-1.18-.44.71-.73.6v-2.83c.2,0,.4-.17.46-.34-.15-.53.11-1.73.12-2.65-.32,2.24-.18-1.9-.52.13-.02-.01-.03-.04-.05-.07v-1.7c.33.23.19-1.47.53-1.79-.25-.95-.39-2.88-.53-4.54v-3.68s.09.05.13.11c.03-.47-.03-.76-.13-1.01v-5.16c.16-.74.31-1.76.47-2.02-.74-3.47.71-3.49.41-6.81-.23-2.06-.37.21-.58.09.01-1.15-.26-2.3-.1-3.2.22.12.29.8.24,1.49.46-.44-.09-1.25.23-2.5-.05.12-.14.57-.23.21.11-3.06-.4-1.72-.13-5.69-.11-.49-.12-.96-.31-1.04v-.68c.28-1.38.31-.77.62-3.16-.13.07-.36.5-.62.76v-5.81c.03.22.05.5.03.91.55-.33-.1-2.05,0-3.41l.47.14c-.06-1.26-.38-3.44-.03-5.02l.23.35c-.35-3.2-.19-6.95-.37-9.69l.3-1.48c-.32-3.24-.21,1.86-.63,1.61v-.85c.13-.24.09-.6,0-1.06v-2.89c.12.44.1,1.96.4,1.13-.45-.47-.14-1.14-.26-2.28.42.24.05-2.4.53-1.7l-.67-3.45v-1.08c.03-.17.04-.38.05-.59.25-.51.51-1.38.64-1.45v-.1s1.1-.2,1.1-.2c.42-.07.83-.16,1.24-.24h1.21v.28c.12-.11.42-.2.74-.28h2.98c-.33.21-.81.33-.82.62l1.43-.24c-.45.2.86.17.41.37,2.63-.61,3.67.24,6.38-.05l-1.5-.08c0-.28.87-.25,1.52-.33.74.39,1.17.34,2.57.51,1.21-.22,1.86-.72,3.5-.71-.36.52,2.69.28,2.98.73.35-.53,3.15-.19,3.37-.49.88-.11,2.06-.06,2.06.23-.13.02-.39.06-.66.09l.87.02c-.09.06-.05.1-.15.11.77.02.78-.36,1.77-.11,0,.14-.54.14-.98.19,2.06.08,3.61-.79,5.31-.31.27-.2,1.78-.25,2.18-.54h.54c.25.17.56.32,1.62.26.99-.46,1.93.18,3.25-.11-1.77.49-.02.12-1.55.59.65.11.94-.02,1.38-.17h-.07c-1.49-.64,2.91-.01.34-.52.13-.02.23-.04.32-.06h3.13s-.12.03-.19.04c-2.27-.06-1.62.17-2.18.36h.44c.2.11.2.26.42.37.75-.17,1.64-.55,2.39-.16l-.09-.34c.69.09,1.53.11,2.38.15,1.5-2.25.5-2.17,1.01-3.27"/>
          <path class="cls-2" d="M129.73,11.1c.5-.09.86-.24.97-.53,3.56.4.14-.1,4.24.23,0,.16-.69.16-.97.19,1.63.3,2.5-.61,3.85.04,3.35.25.42-.71,2.64-.44-.02.2-.02.38-.03.57v-.07h-10.71M139.93,43.46c-.69,0-1.5,0-2.35-.04-1.69-.05-3.58-.15-5.17,0,.41.2.68.33.25.46.04-.98-4.41.51-7.54-.18.24.62-2.8.97-4.72,1.03-.67-.16-.54-.42-.53-.58,2.71.31,3.03-.41,4.65-.81h15.55c0,.14-.05.23-.14.12M118.11,43.62l.4-.28h4.22c-1.69.01-3.49,0-4.62.28M120.78,10.9c-.3.1-.35.17-.26.2h-1.82c.7-.04,1.39-.1,2.08-.2M126.03,11.1h-2.32c.63-.06,1.45-.04,2.32,0M140.63,19.04c-.1,4.71.37,3.75.54,8.15-.65,2.22-.02-4.39-.53-.53-.08-.75-.12-1.46-.19-2.1v-6.09c.06-.1.12.01.18.57M113.3,43.76l.29-.35c-1.67.02-3.43-.03-5.18-.07h8.47c-1.05.28-1.51.75-3.57.42M112.79,11.1h-4.71c1.61-.18,3.34-.34,4.71,0M100.95,11.1c.84-.2,1.51-.48,2.38-.54.08.24.24.42.48.54h-2.87ZM95.76,11.1c.78-.17,1.57-.28,2.48-.19.59-.02.76.07.73.19h-3.21ZM96.63,43.48s.03-.09,0-.14h1.65c-.57.03-1.12.09-1.65.14M88.82,11.1c.43-.04.74-.03.97,0h-.97ZM75.84,43.81v-.47h2.25c-.63.11-1.66.14-2.25.47M75.84,94.96v-6.76c.19,2.3.41,4.38,0,6.76M75.84,96.82v-.82l.26,1.01c-.07-.25-.15-.25-.26-.19M75.97,152.34c-.04-.15-.08-.28-.14-.38v-1.18c.05.53.11,1.04.14,1.56M72.69,161.29l.19-.29h1.9c-.19.15-.66.27-2.09.29M55.12,161.01s-.03,0-.04,0h.09s-.04,0-.05,0M50.06,161.7c2.03-.37,1.26-.51.49-.7h2.82c-.65.41-.92.92-3.31.7M45.91,50.33c-.04-.08-.05-.18-.08-.24l.08-.51v.75ZM45.91,54.96c-.07-.62-.13-1.26-.11-2.25.04-.05.07-.07.11-.07v2.32ZM45.91,59.55l-.32-3.2c.12.33.23.41.32.68v2.52ZM45.91,66.69l-.04-.22s.03-.06.04-.1v.32ZM45.91,145.89v.06-.03,7.09c-.11-2.61-.15-5.38,0-7.36v.25ZM45.91,160.74c-.22-.54-.34-1.38-.11-2.74.04.04.07.06.11.06v2.67ZM12.51,11.28v-.02c.06,0,.09.01,0,.02M12.41,11.26v.02c-.19-.01-.1-.02,0-.02M12.41,11.66h-.11s.11-.04.11-.04v.04ZM141.31,43.66v-.17s-.19-1.46-.19-1.46c-.14-1.3-.25-2.52,0-3.8-.21-.45-.26-3.35-.67-3.4v-.4c.21-.45.46-.69.4-2.71-.46-1.49.17-2.91-.12-4.87.49,2.62.14,0,.6,2.3.2-1.78-.42-4.41-.34-7.49.11-.31.25-.31.36-.63-.16-1.14-.54-2.46-.15-3.58l-.33.14c.08-1.06.11-2.32.14-3.58l.1-1.9.08-.91.05-.46.02-.21h0c-.43-.53.99,1.14-.97-1.16h-.03s-.04-.02-.04-.02l-.09-.02-2.22.74c-2.99-.79-7.01-.08-9.38.6-1.1-.03-2.74-.17-2.73-.34.25-.05.68-.16,1.19-.27-1.62-.03-3.6-.45-4.49.17-1.66.2-1.21-.42-2.45-.52-3.35.87-9.88-.65-10.9.68,1.38.01,3.98.28,6.6.23-.71.16-.17.42-1.13.45-2.61.07-3.95-.42-6.58-.21l.31-.84c-4.49-.87-8.58,1.15-12.1-.08-2.06.16-4.83.32-6.35.74l.14-.26c-.85.09-3.21.37-3.13.7h-1.23c.07-.03.15-.04.22-.06.28-.19-1.08-.36.43-.46-2.73-.34-4.96.09-7.45.37h.69c-.1.06-.2.11-.29.15h-2.55c-.31-.03-.69-.04-1.18,0h-.49c.86-.35,2.09-.36,2.61-.58-3.67-.78-5.25.61-7.67-.4l.28-.04c-.55-.09-1.53.11-2.35.19.27.13,1.08.2,1.64.29-.6.08-.99.33-1.26.53h-3.09c.23-.2,1.42-.23,1.86-.4l-1.79.29c-1.66.02-1.62-.47-2.45-.69-1.39.32.83.22-.31.68-1.71-.51-8.81-.39-12.54,0,.67-.12.25-.41,1.56-.35-.55-.1-2.48.12-2.49.44-.08.02-.19.03-.27.03h-5.28c-.85-.06-1.68-.15-2.42-.24l.49.24h-5.04c-1-.06-2.06-.1-3.16,0h-2.47s0-.03,0-.04l-.24.04H12.48c-.04-.17-.07-.34-.11-.51v-.06s-.02-.02-.02-.02c.12-.13.22-.25,0,0-.1.12-.14.16-.11.14-.04.04-.08.09-.12.14l.09.52v.02c-.29.07-.11.51.04.47.04.51.04,1.12,0,1.93l-.56-.04c-.02,2.92.16,4.39-.17,6.97,0,0,.28.02.17-.47.02-.48.25-1.11.41-.79.43,4.41-.33-.67-.56,2.4.38,3.76.7,10.92.26,13,.33-1.76.69.86.66,2.96-.2.97-.34-.67-.49-1-.06.97-.2,1.77-.11,2.74.27-1.12.62-.59.83,1.14-.11,1.06-.26,2.49-.26,2.49h.25l-.96.14,1.41.14.3-.27h2.46c-1.24.21-2.49.49-2.22.79.95-.04,2.35-.5,3.76-.35-.6.33-2.13.29-2.85.73,2.29.35,1.44-.28,3.96-.13l-.14.53,2.44-.16c-1.23-1.04.08-.89-2.21-1.42h27.29v.63c-.17,0-.42-.02-.72-.03-.38-.46-.29-.34-.18-.23v.05l.02.16c-1.12-.05-2.69-.09-2.91.19,1.27-.02,2.4.18,2.96.42l.07,1.08c.17.66.47.2.72-.66h.04v3.19l-.32.44c-.18,1.04.49,2.11.06,2.74-.27.33-.32-.71-.39-1.45.13,1.66-.49,4.53-.4,7.9.05,2.73.64,2.88,1.05,3.84v3.93c-.09-.19-.19-.35-.25-.29-.51,1.38.06,3.57.25,5.27v1.24c-.22,3.32-.3-.85-.79.84,0-1.3.14-1.35.19-3.15-.65,2.84-.06,6.41.1,8.23.05-.52.23-.66.18-1.66l.18,1.88c.05-.2.1-.41.14-.61v63.12c-.04-1.17-.11-2.41-.16-3.83.16-11.44-.16-23.35.13-35.64l-.6-1.74c.3-.6,0-2.93.39-2.59-.08.68,0,1.31,0,2.12.53-2.63-.05-6.96.15-10.13-.12.37-.64.88-.73-.07.67.26,0-3.73.76-4.65.19-3.16-.58-.12-.47-3.41-.4-.34-.2,3.15-.49,3.75-.31-1.04.14-2.97-.28-2.82-.2,5.27.62,15.06.84,23.1l-.36-.85c.26,4.14.28,10.8-.33,14.1.36-.78-.18,6.09.61,5.47-.18,1.05-.15,1.35-.22,2.84l.26.4c0,2.11-.41,1.78-.37,4.19.34-1.58.44.18.72.88-.38,2.78-.71,6.03-1.02,8.49.1-.21.23-.43.38-1.27-.11,1.67.21,1.4.32,1.84.02,1.62-.42,1.46-.64,1.38-.14,2.96.7,4.29.42,6.51l.36-.78c.09,3.06-.3,5.63-.19,9-.47,1.64-.42-2.77-.62-4.17-.1.68-.13,2.12-.29,2.6.25,1.44.57,3.86.81,5.67-.14-.44-.24-.49-.32-.31l-.05.18-.03.12v.07c-.44-.52-.26-.31.07.09h-.38s-.06-.08-.08-.09v-.26s-.11-1.76-.11-1.76l.05,1.28.02.65v.09s.03.05.08.09c-.34,0-.69-.02-1.05-.04-.07.27,1.27.68-.79.72.84.04.5.35.44.6.82-.12,1.56-.21,2.23-.31.24.28.49.58.69.8h.03c.48.57.34.42,0,0h.17l.27-.02.8-.12-.74.07-.39.02h-.08s-.06,0-.06,0c-.18-.22-.43-.49-.66-.78.11,0,.22-.03.33-.04.24.28.4.47.33.38h.02s.03.02.03.02l.57.08c.85.07,1.61-.3.11-.26.05-.1-.08-.17-.25-.33,3.78-.57,3.95-.71,1.18.03,1.19.33-.8.11.39.45l1.71-.33c1.25.09-1.29.35.65.42.22-.2,1.82-.42,3.35-.38l-.44.12c1.17-.14,2.84.03,2.26-.53l1.38.56-.23-.39c1.36.06,3.22.28,5.24.45.18-.33,1.96-.7.95-.91,2.51.33,8.59-.08,9.48.83,1.32.03,2.23-.06,3.13-.14h.04s.02,0,.02,0h.02s0-.01,0-.01c-.14.16-.27.33.95-1.11h0s-.01-.11-.01-.11v-.2l-.03-.42-.02-.86c-.02-.6,0-1.26.04-2.05l.13.09c-.54-.58.24-2.57-.32-4.89l-.12,1.66c-.22-.09-.23-.89-.27-2.02q.08.14.19-.22c-.16-.15-.26-.84-.35-1.65v-9.61l.42-1.12c-.04.99.05,1.94-.18,1.85.26,1.22.42.67.63-.05.11,2.55-.14,2.97.28,4.93.51-4.23-.42-3.59.02-8.46l-.85-1.32c.1-1.98.34.52.51-1.32-.24-1.8-.49,1.43-.84.76v-3.95c.24.08.48-.22.55-.46-.14-.75.11-2.47.12-3.78-.33,3.21-.19-2.7-.54.19-.05-.03-.09-.13-.14-.26v-3.57c.03.35.02.84.02,1.28.43.66.22-2.03.61-2.51-.31-1.57-.44-4.93-.63-7.43v-4.26c.07-.05.14-.02.21.14.04-.84-.06-1.27-.21-1.66v-6.71c.19-1.05.38-2.87.55-3.29-.77-4.94.76-4.97.44-9.7-.25-2.92-.39.31-.61.13,0-1.63-.27-3.26-.09-4.55.21.18.29,1.17.23,2.14.5-.62-.08-1.8.26-3.55-.06.15-.14.79-.25.29.12-4.37-.41-2.45-.12-8.1-.12-.77-.14-1.51-.41-1.51v-.46c.37-2.59.38-1.34.73-5.01-.15.11-.42.82-.73,1.18v-8.64c0-.08.02-.14.03-.21.03.39.12.86.08,1.79.57-.44-.11-2.92,0-4.86l.49.17c-.08-1.78-.4-4.89-.05-7.13l.26.51c-.19-2.29-.24-4.76-.26-7.16v-.15l1.38-.03c.94-.01,1.84-.05,2.67-.09l1.78.35c4.55-.44-4.53-.2-1.19-1.08.49,1.08,2.36-.35,4.94.08,1.23.41-2.62.22-1.26.7.58-.55,1.38-.15,2.76-.31-.3.52,2.89.07,2.04.65l4.07-.8c.11,0,.22,0,.34,0,.16-.06.16-.08.03-.08l.41-.08c.43.17,1.03.22,1.65.23.62.3,1.64.62,1.72.77,2.9-.25,4.57-.77,6.77-1.02v.55c.48-.38,3.14-.6,1.67-.9,1.8-.29,1.36.48,3.43.16-.15.59-1.4.66-1.42,1.15l1.79-.29c-.57.24,1.1.2.53.43,3.33-.73,4.66.26,8.1-.06l-1.91-.11c.02-.32,1.11-.29,1.93-.39.95.47,1.51.41,3.28.6,1.52-.25,2.37-.84,4.43-.83-.44.62,3.42.32,3.82.85.44-.62,3.99-.21,4.28-.58,1.11-.12,2.61-.05,2.61.27-.17.02-.48.08-.84.1l1.1.03c-.1.06-.06.12-.19.13.99,0,.99-.44,2.25-.13,0,.16-.69.16-1.24.23.65.02,1.27-.02,1.86-.1l.22-.04h.08c.65-.78.96-1.13,1.08-1.28-.09.11-.21.25-.03.03"/>
          <path class="cls-2" d="M114.61,119.88l.15-.26h1.56c-.18.13-.59.24-1.71.26M113.78,134.24c-.36-.03-.46-.12-.46-.26.32.09.8.13,1.53.09-.11.3-1.21.31-2.02.43-.05-.14.12-.25.95-.27M136.55,161.41c.06-.31-.29-.38-.77-.41h1.14c.02.18-.06.34-.37.41M113.33,161.32c.19-.12.26-.22.38-.32h1.48l-1.85.32ZM110.76,161.06s-.02-.05-.02-.06h1.2c-.32.05-.69.08-1.18.06M108.83,161h.14s-.03.01-.04.03l-.09-.03ZM82.19,86.24l.02.08v.17c0-.07-.01-.17-.02-.26M81.99,75.66l.23.24v.85c-.07-.35-.14-.71-.23-1.09M82.06,62.46c.19-.12.07.88.12,1.47.03-.11.03-.25.03-.41v5.19l-.12.13c0-.72.11-1.01.11-1.74l-.11.3c-.23-1.9-.2-3.06-.04-4.95M82.22,59.83v3.09c-.06-.8-.23-1.79-.23-2.77.09-.66.17-.54.23-.31M82.22,71.81c-.09-.8-.1-1.61,0-2.44v2.44ZM89.76,48.86c.13-.01.23,0,.33,0h-1.52c.37-.05.76-.07,1.19,0M94.17,48.86h-1.61c.46-.17.9-.32,1.42-.37.04.15.11.27.19.37M100.68,48.86h-.9c.3-.01.61-.01.9,0M108.47,48.84s-.03.02-.04.02h-.13c.05,0,.11,0,.17-.02M116.7,48.5c2.96.42.12-.09,3.53.25,0,.05-.08.09-.17.11h-3.66c.15-.09.26-.2.3-.36M122.34,48.86h-1.38c.46-.1.89-.19,1.38,0M124.7,48.2c2.29.14,2.22.29,2.93.66h-3.57c.09-.17-.32-.43.63-.66M130.64,48.01c3.3.12,2.64-.45,5.73-.65,1.56.78-3.07.02-.37.64-1.92.35-3.39.32-4.43.86h-2.92c.61-.28,1.9-.12,2.99-.41-.34-.03-2.28-.18-1.01-.45M138.82,48.86h-2.16c.89-.12,1.83-.56,2.16,0M134.2,48.86c.53,0,1.04-.02,1.58-.04.06.02.14.04.21.04h-1.79ZM130.48,74.05l.05-.08h2.02c-.47.18-1.02.28-2.07.08M109.54,94.94h-.04v-.06s.02.05.04.06M139.95,94.94h-1.28c.49-.11.93-.18,1.28,0M140.61,95.96c.14,1.59.19,3.13-.16,4.86v-5.31c.07.13.12.28.16.45M140.45,102.27v-.91l.29,1.05c-.07-.26-.18-.22-.29-.14M140.81,112.01c-.15,1.21.15,3.29-.18,2.81l-.18-1v-3.19c.14.29.27,1.25.36,1.38M140.45,119.55v-.4c.23-.11.36-.29.3-.59.37-.03.15.76-.3.99M109.5,133.59v-3.38c.1,1.01.13,2.1.08,3.36l-.08.02ZM140.54,119.95c1.42-1.45.47-1.53.96-1.92-.46-2.29-.5-8.84-1.05-9.38v-1.02c.2-.87.38-2.72.57-3.13-.73-4.4.73-4.44.41-8.65l-.04-.43-.02-.18v-.06s-.02-.03-.02-.03v-.03c-.14-.18-.43-.55-1.05-1.33-.13.03-.22.05-.25.1-.08.05,0,.12.15.18,1.49,1.86.72,1.7.62,1.79-.11-.37-.24-.66-.37-.88v-.03h0c-.87-1.4-1.94.36-2.67-.42.14-.26.82-.36,1.5-.29-.43-.6-1.25.09-2.49-.3.11.06.56.16.21.29-3.07-.14-1.72.49-5.71.16-.56.17-1.14.17-1.04.56-2.26-.51-1.12-.51-3.84-.95.08.18.64.56.88.95h-5.69c-.19-.03-.38-.05-.59-.1.28-.02.6-.16,1.27-.08-.32-.7-2.06.12-3.42-.03l.12-.59c-1.25.09-3.44.49-5.02.05l.36-.29c-1.53.21-3.19.27-4.79.3v-5.81l.25-5.8c.2,2.14.02-1.09.02-1.26l.3-1.87c-.3-3.92-.23,1.74-.57,2.03v-1.33c.03-.18.04-.4,0-.64v-3.62c.06.75.1,1.78.34.95-.4-.55-.19-1.29-.23-2.48.15-.06.31-.12.31,0,.55.02,1.02.06.68.36l3.04-.76h2.12c-.02.33,1.7.96,1.81,1.17,2.4-.25,3.78-.79,5.61-1.06l-.02.58c.3-.29,1.51-.48,1.73-.69h1.83s.09.01.14,0h.52c-.2.54-1.14.62-1.15,1.1l1.5-.29c-.47.23.91.21.44.43,2.77-.72,3.87.29,6.74-.04l-1.59-.11c0-.33.91-.3,1.6-.4.77.47,1.24.4,2.72.61.61-.14,1.1-.33,1.62-.51,0-.03.01-.07.01-.13.04.03.07.05.09.04.05-.08.11-.15.14-.22.03-.07.04-.16.06-.27-.13.17-.3.35-.53.56-.8.18-1.84.28-2.63.31-.57-.17-.45-.44-.44-.59,1.3.18,1.94,0,2.5-.26l.44-.21h.68c0,.08-.02.15-.02.2.04-.06.1-.13.13-.2h.76v-25.11h-1.15c-.83-1.92-1.91-.66-3.16-.97,1.84-.6,0-.16,1.62-.74-1.24-.23-3.11.53-5.26.43-.23-.14-.23-.31-.44-.44-.81.19-1.74.66-2.52.19l.09.41c-1.48-.21-3.54-.09-5.11-.52l-1.85.76c-2.48-.81-5.82-.08-7.78.61-.92-.03-2.28-.16-2.27-.34.21-.06.56-.17.99-.28-1.35-.03-2.98-.46-3.73.17-1.37.2-1.01-.44-2.04-.54-2.77.89-8.19-.66-9.04.7,1.15,0,3.31.27,5.48.21-.34.1-.33.23-.42.33h-2.87c-.95-.1-1.85-.21-3.09-.08l.26-.88c-3.74-.88-7.13,1.18-10.05-.06-1.72.16-4.01.33-5.28.75l.11-.25c-.75-.33-1.09.04-1.21.47-.08.08-.17.18-.29.31.08,0,.16-.02.24-.03-.04.6.25,1.09.44-.06.04,0,.07,0,.12,0v3.92c-.08-.67-.2-1.34-.39-2.08-.16-.3-.29,1.14-.37-.45-.28,2.88.07,5.22.3,7.84v-.73c.83,2.08-.19,1.58.18,4.93-.34-.88-.34-2.33-.53-2.93-.63,3.88.49,5.53-.33,8.09l-.02-.29c-.08.57.08,1.6.16,2.47.1-.3.16-1.15.23-1.72.08.87.45,1.33.6,1.62-.37,1,.19,1.32,0,2.9-.34.57-.31-1.3-.5-1.9l.24,1.89c.02,1.74-.37,1.72-.55,2.57.26,1.47.18-.85.54.33-.4,1.8-.31,9.29,0,13.2-.1-.7-.33-.26-.28-1.62-.08.57.1,2.6.36,2.62.24,2.62.07,5.95-.17,8.39l.27-.71c.44,2.06-.33,5.21-.07,8.84v-.07c.03.55.2,1.08.35,1.71v1.87c-.12-.5-.18-.98-.38-.9l.38,2.9v.5c-.14.9.05,3.92-.29,2.82.24.94.25,2.4.29,3.48v2.34l-.14-.44c-.04.55.04,1.14.14,1.63v6.03l-.15-.42c-.16,1.41-.03,1.99.15,2.56v3.53h-.14c-.04,2.6.15,3.92-.17,6.22,0,0,.26,0,.16-.42.01-.23.08-.46.15-.62v1.12c-.12-.04-.22.13-.29.93.1.95.2,2.15.29,3.41v7.97c-.02.07-.03.14-.05.21.01-.07.03-.11.05-.16v3.4c-.02.24-.02.5,0,.76v4.4h2.46s.02.05.03.08c.18,0,.37-.04.59-.08h1.71c-.54.11-1.17.2-1.54.48,1.91.37,1.21-.3,3.29-.13l-.12.54,2.02-.18c-.34-.34-.45-.56-.51-.71h.62c-.07.1-.12.2-.1.28.09-.1.32-.19.49-.28h1.29c-.07.04-.12.08-.1.08l.16-.08h5.9c-.18.18-.68.32-1.34.24-1.25.11-1.13-.42-2.19-.08l1.46.45c1.15-.04,2-.34,2.67-.62h2.06c1.68-.02,3.02.52,2.64.92l1.9-.23c.38-.17.24-.44-.13-.7h1.98l.25.32c.73.21,1.49-.6,1.93-.08.23.32-.5.39-1.02.47,1.17-.15,3.19.59,5.57.49,1.82-.06,2-.71,2.61-1.21h2.98c-.05.05-.08.11-.05.14.79.52,1.99.13,3.05-.14h2.38c.48.18-1.2.34-.26.83-.9-.02-.94-.19-2.22-.23,2,.77,4.52.06,5.8-.14-.37-.06-.47-.28-1.17-.21l.41-.08,1.49.08-.46-.24h3.14c-.17.06-.46.1-1.01.06-.24.47,2.22.23,2.63.59-.72.38-2.08-.17-1.99.33,1.85.11,4.51-.06,7.4-.33l.55-.04h.12s0-.01,0-.01c-.08.1.18-.21.48-.61h.36v-.47c.41-.5.71-.88.24-.29v-.06s-.01-.09-.01-.09v-.35s-.1-1.42-.1-1.42l-.13-2.38v-.39l.09.18c-.03-.47-.06-.99-.09-1.51v-7.22c.07-1.49.2-2.85.4-3.85-.3.62.09-4.27-.4-4.85v-2.06c.01-.14.01-.31.03-.51l-.03-.04v-.93h-.04c-.01-.75-.11-.91-.27-.13,0,.05.02.08.03.13h-.91c-1.4-.86-.9-.38-2.55-.68.86.32.33.47-.19.68h-1.38c-1.72-.38-3.56-.72-5.02-1.03.15.12.29.28.89.46-1.17-.14-.97.25-1.29.39-1.08.01-1.03-.46-.98-.75.21.06.43.11.66.16-.21-.2-.37-.34-1.81-.46.26.08.58.17.94.26-1.93-.09-2.86.84-4.35.51l.54.42c-2.15.12-3.96-.35-6.32-.21-1.16-.59,1.95-.51,2.93-.76-.48-.12-1.51-.16-1.83-.35-.07.02-.15.05-.22.06-.17.02-.35.04-.6.02-.03.05,0,.09.03.14-.97.26-2.21.54-3.19.76.79-.43-.23-.58-1.25-.63l1.92-.19-1.81.13-.29.05c-.24,0-.48-.02-.68-.02,0-.04.03-.09.04-.12-1.77.29-2.42.06-3.49.41-.02-.01-.02-.01-.02-.01,0-.07,0-.16,0-.26.03-.01.04-.02,0-.05-.15-.31.04-5.58.08-7.18l.1.46c-.11-1.23.02-2.98-.44-2.38l.45-1.46-.3.24c.04-1.01.13-1.83.23-2.61l.58.05c.63.02,1.03.05,1.89-.08-.82-.13-.08-.34.36-.42-1.42-.27-1.46.25-2.81.31,0-.05.02-.1.02-.13.19-.32,1.52-.67.84-.9h.01c1.6.31,2.76-.01,3.48.9,2.19.05,3-.43,5.22-.2l-.06.16c.41-.66,1.8.29,3.44-.38l-1.16-.15c.04-.27.62-.28,1.41-.33q-.1.11.17.23c.04-.1.2-.18.41-.24h5.52l.66.41c-.7-.05-1.37.06-1.31-.2-.84.32-.47.5.05.77-1.81.13-2.09-.17-3.47.33,2.98.61,2.52-.51,5.96.03l.93-1.02c1.4.1-.38.41.93.62,1.17-.28-.71-.56-.6-.93h2.82c0,.25.19.51.34.58.53-.18,1.74.14,2.66.15-2.25-.4,1.89-.24-.14-.67,0-.02,0-.05.01-.07h1.77c-.11.2.19.27.6.33"/>
          <path class="cls-2" d="M279.34,91.08v-.14h0s0,.09,0,.14M272.64,121.48c.36-.09.61-.17.77-.23h1.29c-.36.23-.91.38-2.07.23M239.02,87.57h0s0,0,0,0ZM238.93,113.29c-.11-.24-.21-.31-.3-.48v-1.86l.3,2.34ZM238.7,116.3s-.05.03-.08.04v-1.62c.05.42.09.9.08,1.57M238.62,118.68v-.34s.04.08.05.11l-.05.23ZM241.41,26.73c.94,3.46,1.21,2.48,2.34,5.56-.17,2-.98-3.15-.65-.06-.15-.31-.29-.6-.42-.89l-1.46-4.91s.12.15.19.29M246.57,43.78c.08.11.41,1.6.8,3.41l-.07-.22-.73-3.19ZM249.09,52.99l-.49-1.64c.19.44.38.87.56,1.25-.02.14-.05.27-.08.39M249.59,35.34l.09.15v.4c-.03-.18-.05-.38-.09-.55M249.46,30.64l.22.21v2.75c-.24-.7-.45-1.32-.22-2.96M249.63,54.82s.03-.09.05-.14v.33l-.05-.18ZM238.62,82.92h0s0,0,0,0ZM238.71,86.29c-.03-.08-.05-.16-.09-.24v-.15c.08.06.12.18.12.39h-.04ZM279.34,54.29v-5.23c.18,1.76.37,3.39,0,5.23M279.34,55.94v-.61l.24.76c-.06-.19-.15-.21-.24-.16M280.11,96.47c.54-3.5-.44-2.95.03-6.98l-.8-.99v-.72c.12-.27.31.7.45-.47-.14-.84-.29-.36-.45.13v-2.92c.06-.06.12-.14.15-.21-.16-.64.11-2.05.12-3.12-.17,1.38-.22.71-.28.1v-3.39c.04-.32.11-.61.23-.71-.09-.37-.17-.88-.23-1.44v-13.88l.09.47.02-1.09-.11.1v-.72c.18-.87.37-2.28.55-2.61-.81-4.08.8-4.09.46-8-.25-2.41-.42.26-.63.11,0-1.35-.29-2.69-.12-3.76.24.15.33.95.27,1.77.52-.53-.09-1.49.26-2.94-.06.13-.14.66-.26.25.12-3.6-.43-2.02-.13-6.69-.14-.61-.14-1.21-.39-1.24v-.5c.35-1.97.38-1.04.72-4-.14.09-.43.65-.72.95v-7.26s0-.01,0-.02c.01.32.13.71.08,1.47.6-.37-.12-2.41,0-4.01l.5.15c-.06-1.47-.41-4.03-.03-5.89l.26.42c-.2-1.89-.25-3.93-.29-5.91v-1.47s-.02-.35-.02-.35c-1.52-1.9-.59-.53-1-.94h-.6c-.78.03-1.51.05-2.19.11l-1.43-.38c-3.72.47,3.68.22.96,1.15-.42-1.15-1.92.37-4.03-.09-1-.46,2.14-.24,1.03-.76-.47.59-1.12.16-2.25.33.24-.55-2.35-.07-1.66-.69l-3.95,1.02c-.64-.32-.96-.26-1.81-.18,1.04,0,.72.2.42.43h-4.54c-.09-.1-.25-.2-.45-.32.07,0,.14-.01.22-.01h-.24c-.51-.29-1.14-.58-1.21-.71-1.17.14-5.93.35-6.78.55-.48.41-.76-.5-1.35.99l.2,1.55-.49-.03c.34.5.54,3.08.8,1.65.26,1.76-.44,1.32-.16,3.35-.51-.16-.57-1.36-1-1.39l.26,1.75c-.21-.56-.18,1.06-.39.52.64,3.24,0,13.47.27,16.83l.09-1.87c.29.01.26,1.09.34,1.9-.18.39-.04.77.17,1.21h.03v.06c.26.57.6,1.26.51,2.21.08.55.03.96-.05,1.36.03.1.07.2.1.3v8.46c-.1.22-.18.34-.26.23-.1.77-.19,1.44-.07,1.56,0,.15-.03.31-.04.46-.72-2-3.51-11.23-4.45-13.02l-.22-.76c.11-.45.29-.78-.21-2.16-.8-.81-.47-2.22-1.2-3.45,1.08,1.59.15-.08,1.12,1.3-.2-1.39-1.41-2.92-1.99-5.2.05-.3.19-.37.22-.67-.4-.73-1.09-1.46-.94-2.48l-.31.29c-.29-1.62-1.03-3.67-1.16-5.52l-1.22-1.51c-.13-1.9-.82-4.34-1.79-5.85l-.43-1.46c.36-.05.69-.12.7-.17.16-.05-1.82-.14-2.56-.22-.03.04-.06.07-.11.11-.16.02-.27.03-.38.04,0-.04-.04-.08-.07-.12,0,0,0,.02.05.06v.06c-.82.02-.66-.44-1.38-.58l.67-.04c.38.24.55.37.66.49,0-.05.19.04-.02-.12.06.01.17.02.34.02-.09.03.03.06.25.08.35-.35-.57-.25-.65-.15-.09-.08-.24-.2-.5-.38l-.18-.06-.78-.23.15.38s-.04,0-.06,0c-2.88.92-7.94-.69-8.99.72.18,0,.4.02.64.02h-1.42l.18-.44c-3.52-.9-7.6,1.23-10.24-.06-.46.38-.64-.54-1.31.51h-2.34v8.84c0-.1-.02-.25-.03-.43-.22,1.83-.13,3.43.03,5.02v4.35c-.06-.39-.09-.73-.17-.95-.76,3.59.47,5.11-.45,7.47l-.03-.27c-.1.54.07,1.48.15,2.3.11-.27.18-1.06.27-1.6.04.33.12.57.23.79v2.38c-.03-.3-.07-.58-.13-.74l.13.96v1.89c-.15.56-.39.73-.53,1.27.24,1.26.21-.53.53.12v.5c-.39,2.09-.36,8.45-.07,11.88-.1-.66-.36-.23-.29-1.51-.1.51.07,2.33.36,2.41v5.17c-.07.92-.16,1.81-.26,2.61l.26-.57v3.89c-.12,1.28-.24,2.68-.12,4.19v-.09c.02.25.06.49.12.73v1.85c-.06-.07-.11-.12-.19-.09l.19,1.3v4.66s-.08-.03-.15-.2c.07.21.12.45.15.7v4.37l-.04-.1c-.03.33-.01.68.04,1.01v5.97l-.12-.29c-.2,1.25-.06,1.81.12,2.32v3.31h-.17c-.06,2.41.12,3.61-.26,5.74,0,0,.3,0,.18-.4.02-.25.13-.54.24-.67v1.21c-.15-.15-.31-.12-.4.79.19,1.66.35,4.11.4,6.31v1.86c-.03,1.12-.11,2.02-.25,2.55.09-.34.17-.47.25-.47v2.37c-.03-.12-.07-.21-.11-.27-.06.8-.23,1.45-.14,2.26.08-.23.16-.38.24-.44v3.89h1.7l-1.04.11,2.34.14.2-.23s.08-.01.12-.02h1.9c-.59.1-1.21.2-1.53.46,1.86.38,1.59-.3,3.63-.14l-.11.56,6.42-.17c-.3-.33-.76-.54-1.28-.7h13.1c1.24.13,2.08.56,1.78.91l1.86-.24c.34-.16.24-.42-.08-.68h.23v-1.07l.3-.32c.18-.86-.52-1.74-.07-2.27.28-.27.34.6.4,1.2-.14-1.37.52-3.74.42-6.53-.05-2.18-.63-2.36-1.06-3.1v-3.1c.34-.77.2-1.83,0-2.86v-3.46c.12.29.28,1.09.58.29-.02,1.07-.16,1.12-.19,2.6.66-2.35.05-5.29-.12-6.8-.06.43-.24.55-.18,1.39l-.09-.62v-6.38c.04-.16.09-.28.12-.37.28.85-.28,2.45.16,2.35.13-1.23.2-2.77.22-4.47.35.52.76,1.02,1.17,1.53l.77,2.92-.76,1.01c1.44,2.84,1.35,4.45,1.71,7.19.12-.76.25,4.57.84,3.65.11.87.24,1.08.61,2.2l.35.14c.6,1.54.12,1.52.85,3.26-.14-1.34.47-.13.94.2.42,2.24,1.03,4.8,1.43,6.77.05-.21.1-.43,0-1.14.17.59.31.81.43.92l.4,1.49c-.09.04-.16.08-.22.11.18.57.4,1.04.64,1.44l.48,1.85h2.85l.04.13c0-.05-.01-.08-.02-.13h5.82c-.53.23-2.29.23-3,.42.47.13,1.47.16,1.78.36.75-.22,1.88-.52,2.92-.77h.77c-.18.45,2.13.43,2.81.47-.13-.29-.69-.44-1.93-.37.02-.04.05-.08.09-.1h6.62c.05.17.08.36.06.53,1.37-.18,2.21-.08,3.14-.4.96.37-.66.12.31.48l1.39-.34c1.03.08-1.04.37.54.44.19-.21,1.48-.44,2.73-.41l-.36.14c.86-.14,2.06,0,1.9-.45h.2l.88.47-.19-.41.46.05s.08-.08.11-.1h.65v-.67c.75-.84-.11-.17.25-.64l.13-.96.27-1.77c.16-1.18.27-1.27.06-3.29-.12.96-.3.07-.37-.43-.23,1.68.27,2.08.32,3.66-.22.16-.46-.88-.67-1.16v-2.98c.06-.54.21-.99.5-1.31.05-2.56-.36-3.51-.16-6.12l.13.07c-.57-.49.25-2.12-.33-4.04l-.13,1.37s0-.01,0-.01v-7.3s.1.85.1.85l.17-.45-.28-.7v-2.46c.18.3.31-.06.48-.52.11,2.11-.13,2.44.29,4.07"/>
          <path class="cls-2" d="M238.42,161.28c-.51-.3-2.22-.11-2.65-.28h3.38l-.73.28M227.21,161.49c.2-.58-2.14-.28-3.71-.49h4.22c.12.2.06.42-.51.49M203.28,161.14c-.17-.03-.3-.08-.42-.13h1.43l-1.01.13ZM192.64,161.53c.6-.22.4-.45,1.8-.53h3.12l-4.92.53ZM188.79,161.27c-.14-.14-.02-.22.23-.27h3.87c-1.57.08-2.22.34-4.09.27M186.05,161.25l-1.42-.24h2.21c-.3.08-.56.15-.79.24M146.02,139.82c.04.28.07.42.11.51v4.47c-.07-1.54-.12-3.17-.11-4.99M145.92,112.92l.21-.9v3.46c-.09-.66-.17-1.46-.21-2.56M146.01,30.19l.12.21v.7c-.04-.3-.07-.6-.12-.91M145.99,13.46l.03-1.48h.11s0,5.17,0,5.17c-.1-1.4-.14-2.55-.14-3.69M145.69,11.73h.14c-.04.07-.09.15-.13.23-.17.07-.28.1-.01-.23M146.13,11.23v.04s-.07.08-.11.13v-.07s.07-.07.11-.1M146.02,11.75h.11v.17s-.07,0-.11,0v-.18ZM203.83,30.17c-.01.65-.04,1.17-.06,1.65v-2.08c.02.13.04.26.06.44M203.45,48.86c-.06.09-.1.19-.17.29.03-.11.05-.2.08-.29h.09ZM175.97,48.89h0c-.2,0-.48,0-.87-.03h.87v.03s.05-.01.09-.01c0,0,.01,0,.02-.01h.04s-.04,0-.06.01c-.04,0-.05.02-.09.02M173.81,49.68s-.01-.01-.01-.02l-.05-.47s.04,0,.04.03c.49-.07,3.95-.1,4.61-.1-.39.43-3.1.43-4.59.56M173.79,50.22c.12,1.6.2,7.05.21,8.63-.12,1.11-.31.88-.44.87.14-2.59.02-7.24-.17-8.36-.04-.2-.07-.38-.1-.57v-1c.13-.04.28-.05.44-.08,0,.22.03.41.05.51M180.32,73.97h-4.89c1.45-.1,3.57-.14,4.89,0M185.98,105.39h4.2c-1.4.01-2.81.01-4.2,0M173.29,72.97s.04.06.07.08c.04.09.08.15.12.19.07.32.14.57.23.73h-.42v-1ZM173.46,125.82h-.17v-.11c.06.05.12.08.17.11M173.72,48.86h.21c-.05.06-.1.11-.2.16v-.16ZM173.29,72.84v-.6c.03.22.07.42.1.6h-.1ZM173.7,49.2c.01.16.02.33.04.49-.17,0-.31.03-.44.04v-.88h.26s-.02.09-.02.15c.04-.06.08-.09.14-.14h0s.01-.01.01-.01t-.01.01s.01.11.02.16c-.06.03-.1.06-.17.08,0-.04,0-.07.02-.11-.5.5-.04.24.18.19M219.12,125.71c.85.05,1.66,0,1.88.11h-1.63l-.25-.11ZM244.59,125.71l-.09.11h-1.94c.39-.06,1.02-.1,2.02-.11M266.7,125.33c-1.57.24-1.79.39-1.51.5h-2.22c.62-.34,1.25-.67,3.74-.5M279.88,140.62c.09-.95.12-2.97.26-3.63-.21-1.99-.51-5.37-.71-7.88.49,2.38.47-2.51.51-4.11-.21.29-.31.38-.27,2.85-.6-.65.12.84-.37-3.91-.18,3.26-.32-.04-.59.78,0,.41,0,.77.01,1.11h-4.31c-.03-.11.24-.21,1.42-.22-1.04-.05-.62-.35-.53-.62-2.64.29-4.09.11-5.68.46-1.47-.35.99-.12-.48-.46l-2.12.32c-1.56-.08,1.61-.34-.81-.42-.29.2-2.26.42-4.17.37l.55-.11c-1.46.12-3.51-.05-2.8.51l-1.73-.56.31.4c-3.99-.18-5.48-1.09-10.62-.62,1.22.12.1.33-.56.4,2.15.26,2.65-.29,4.67-.34.24.29-1.82.64-1.53.89h-.83c-2-.13-3.67.03-4.59-.73-3.27-.05-4.49.41-7.8.18l.09-.14c-.61.62-2.7-.29-5.15.36l1.75.14c-.03.08-.17.15-.38.19h-1.69s-.11-.06-.29-.11c-.03.04-.1.08-.17.11h-9.81c.76-.25.23-.42-.43-.64,2.69-.11,3.13.16,5.19-.31-4.46-.6-3.77.49-8.89-.04l-1.41.98c-2.08-.1.57-.4-1.38-.6-1.26.18-.18.39.48.61h-3.93c-.11-.13-.27-.24-.4-.28-.8.17-2.6-.14-3.98-.15,2.6.29-.49.25-.64.42h-2.31c-.72-.08-1.86-.11-2.16-.39-.76.17-1.93.28-3.22.39h-8.15c.7-.4-1.43-.75-.66-1.12-2.1-.11-1.84.7-4.02.85-.8-.41-3.16.08-5.24-.02.14.1.19.2.13.29h-4.08c-.84-.17-2.49-.33-2.85-.52-.46-1.81.23-13.36-.22-17.56v-1.46c1.24-.13.55-.23,0-.34v-.21c.38-.04.82-.13,1.32-.24-.51,0-.94.02-1.32.03v-.13h1.73c-.14.03-.28.06-.41.1.66,0,1.4,0,2.14.02.12-.04.24-.08.36-.11h3.03l.41.25c-.93-.06-2.38-.12-3.81-.14-.79.23-1.54.42-1.87.4.51.44,4.02.25,5.49.56-.14-.05-.67-.13-.26-.23,3.65.12,2.06-.35,6.8-.1.69-.12,1.37-.12,1.24-.42,2.69.38,1.34.38,4.58.72-.12-.17-1.19-.57-1.16-.96,4.57.54,4.68-.07,7.6.34-.33.02-.72.12-1.5.07.37.52,2.45-.1,4.07,0l-.15.44c.37-.02.81-.04,1.29-.07.42-.32.11.65,1.14-.74l-.03-1.01v-.49c0,.13.03.59.11-.16l.18.55c-.25-4.9-.12-10.61-.25-14.78l.21-2.24c-.21-4.99-.15,2.92-.47,2.42v-1.23c.13-.39.08-1,0-1.8v-4.37c.11.45.07,3.17.32,1.83-.33-.72-.09-1.75-.19-3.49.31.36.05-3.65.39-2.58l-.29-3.07-.06-.76c-.14-.29.26.1-.33-.73l-.31.04-1.17.18c-.72-.31-2.22-.7-2.33-.86-3.59.25-5.67.77-8.42,1.02l.03-.57c-.38.23-1.73.4-2.35.57h-3.9c.41-.43,1.64-.52,1.66-.96l-2.22.28c.69-.22-1.35-.2-.66-.42-2.08.35-3.52.28-4.99.16-.64-.05-3.58-.12-4.81-.15,0-1.57-.02-10.41-.05-11.08-.27.42.38,9.42-.29,11.07h-.02c.34-2.07-.24-10.46-.04-11.1.34-1.55.3-2.45.46-5.39-.1-1.23-.25-5.55-.38-6.67,1.48-.17,4.09,0,4.35-.28,1.38-.12,3.26-.05,3.24.28-.2.02-.61.08-1.04.1l1.38.03c-.13.07-.08.11-.25.12,1.23.02,1.24-.43,2.8-.12,0,.16-.86.16-1.55.23,3.24.1,5.7-.92,8.39-.36.49-.28,3.77-.31,3.57-.84h.29c.58.26.68.6,2.98.54,1.57-.54,3.05.21,5.12-.15-2.76.58,0,.17-2.42.71.46.06.98.05,1.56.02l.89-.08.49-.05c-.77,1.02,1.05-1.38.86-1.14v-.08l-.02-.08v-.15l-.03-.34c-.04-.79-.09-.93-.13-1.07,0,.27.04.57.04.9-.35.68.86-.32-.81,1.83l-.8.04c-.96-.71-.49.34,1.41-1.11-.25-1.07.44-1.92-.37-.41v-7.05c.06-.23.11-.1.17.74-.04,3.27.04,1.17.14,2.42.05.56.11,1.12.16,1.82v-.61c.12-.43.23-.43.33-.86-.15-1.6-.48-3.44-.14-4.98l-.29.18c.15-2.93.08-6.99.4-10.13l-.56-3.66c.43-3.88.31-9.56-.21-13.04v-1.99h-2.52c-.72-.06-1.25-.13-1.25-.23.31-.05.86-.16,1.49-.26-2-.03-4.45-.46-5.58.16-2.05.17-1.5-.42-3.04-.54-4.16.86-12.26-.66-13.52.67,1.16,0,3.07.13,5.19.19h-2.1s0-.01,0-.03c-.1,0-.19.03-.28.03h-4.09l.29-.59c-5.6-.86-.39,1.14-4.76-.08-2.48.15-5.72.29-7.65.67h-.21l.15-.21c-.46.04-1.28.11-2.04.21h-2.82c.13,0,.32-.03.55-.04-2.15-.21-4.03-.12-5.91.04h-5.44c.24-.03.47-.06.59-.1-1.14-.2-2.98-.26-3.85-.26-.81-.22-1.95.12-1.55,1.4.08,1.9.15,3.55-.22,5.53l-.02-.44c-.09.89.06,2.5.13,3.85.09-.44.15-1.79.22-2.69.07,1.37.41,2.08.56,2.55-.35,1.54.17,2.04-.02,4.51-.32.88-.27-2.06-.45-2.96l.21,2.94c.01,2.71-.35,2.67-.52,4.02.23,2.29.18-1.35.51.51-.38,2.8-.32,14.47-.04,20.59-.07-1.09-.29-.4-.24-2.54-.08.9.08,4.07.32,4.11.22,4.09.06,9.27-.18,13.08l.24-1.09c.41,3.2-.31,8.09-.08,13.76v-.12c.02.84.16,1.64.3,2.56v2.93c-.09-.75-.15-1.42-.34-1.31l.34,4.42v1c-.11,1.53.04,5.97-.27,4.31.25,1.58.24,4.14.27,5.83v3.35c-.06.17-.14.26-.11,1.04l-.33-1.84c-.07,1.65.21,3.64.44,4.08v1.53c-.06-.21-.13-.17-.26.28-.05.22.26,1.6.16,3.19l-.2-.24.07,3.6-.24-1.15c-.27,3.74.28,3.81.46,6.28v3.26l-.46-.04c-.04,4.07.13,6.11-.18,9.71,0,0,.24.02.15-.67.03-.67.22-1.55.38-1.08.38,6.14-.29-.94-.5,3.34.32,5.23.59,15.19.2,18.09.14-1.28.32-.9.42.17v4.31c-.11-.28-.19-1.43-.28-1.75-.05,1.35-.18,2.46-.11,3.83.11-.78.26-1.21.4-1.17v5.43h5.12c-.1.04-.2.08-.28.11,2.06.27,2.08,0,3.12-.11h1.79l-.17.52,3.02-.16c-.21-.14-.35-.25-.47-.35h7.65l1.34.26c.98-.01,1.82-.12,2.55-.26h7.75c.67.17,1,.39.73.58l2.83-.22c.32-.1.38-.22.29-.36h2.21l.65.52c1.1.22,2.21-.57,2.88-.06.35.31-.74.37-1.52.44,1.75-.15,4.78.59,8.31.49,3.24-.06,3.02-.94,4.49-1.4h3.86c-.22.14-.55.29-.46.38,1.58.66,4.2-.21,6.06-.31,4.87.31-.23.34,1.67.98-1.36-.01-1.43-.17-3.32-.21,2.99.74,6.76.06,8.67-.13-.55-.06-.69-.26-1.75-.21l1.98-.22c-.41-.1-.81-.19-1.23-.27h6.57c-.14.11-.55.2-1.74.15-.36.46,3.31.23,3.94.58-1.08.37-3.11-.17-2.97.32,5.54.23,15.84-.72,24.32-.96l-.88.43c4.34-.3,11.34-.31,14.82.41-.81-.41,6.4.23,5.76-.71,1.1.21,1.43.18,2.99.26l.42-.3c2.23.02,1.86.47,4.42.45-1.24-.3-.54-.45.23-.63h2.22c1.01.15,2.05.29,3.06.42l1.15.14.28.05h.14s.07.02.07.02h.02s.01,0,.01,0c.36-.49-.68.88.48-.64h.07v-.09c.1-.13.22-.28.36-.47v-.05l.06-.73c.07-.96.14-.75.21-1.6-.1.26-.21-.56-.34.62.11-2.33-.19-.79-.29-1.42-.01-2.26.37-2.02.58-1.91.12-4.13-.63-5.98-.37-9.07l-.21.74v-5.71c.04-1.11.07-2.24.09-3.4.02.17.05.32.06.44-.03-.44-.06-.87-.03-1.57-.01,0-.02.01-.02.01,0-.64,0-1.3-.01-1.97.43-2.28.36,3.87.54,5.8"/>
          <path class="cls-2" d="M240.07,287.01c-.51-3.35-.5,1.03-1.01.18v-8.71c.1,1.3.23,2.54.44,3.55-.11.3-.22,1.02-.35-.04.03,2.7,1.21,1.4.92,5.01M239.06,290.39v-1.99c.04.66.07,1.34.12,1.98-.05,0-.08,0-.12,0M206.55,245.75c.12-.62-.45-2.26-.35-2.65l.67,3.12-.31-.47ZM204.79,274.67c-.09-.23-.17-.3-.24-.44v-1.67l.24,2.11ZM204.58,277.71s-.02,0-.04.01v-1.32c.04.36.05.76.04,1.31M204.54,279.94v-.08s0,.03,0,.03v.05ZM181.25,183.86v1.47c-.08-.72-.06-1.15,0-1.47M181.06,175.72c-.02-.65.08-.77.19-.71v3.3c-.16-.82-.28-1.63-.19-2.59M180.77,170.69c.23.07.38-.14.48-.47v2.95c-.18-.89-.43-1.56-.48-2.49M208.74,184.47c.3,1.38.43,2.05.43,2.3l-.64-2.71c.05.06.11.19.21.41M213.11,203.41l-.32-1.36c.14.43.24.87.32,1.36M214.07,195.73c.07-.35.17-.47.27-.52v3.65c-.15-.95-.24-2.18-.27-3.13M239.06,170.42v-1.41c.04.46.06.92.17,1.23-.07.04-.11.1-.17.17M239.06,172.92v-1.83c.06-.26.11-.4.17-.18.05.82-.03,1.55-.17,2.01M239.06,175.37v-.77c.06.05.1.16.16.38l-.16.38ZM239.06,217.29v-2.76c.24,1.02.18,2.1,0,2.76M239.28,229.16c-.16,1.13.14,3.08-.18,2.62l-.04-.14v-3.27c.09.33.16.7.22.78M239.74,269.47l-.68-.55v-1.98c.29.68.64-.35.68,2.53M240.44,271.97c-.09.97-.27.08-.33-.43-.23,1.69.24,2.09.29,3.7-.29.22-.65-2.05-.85-.93.27-1.98-.05-3.72.7-4.58.06-2.61-.33-3.58-.15-6.21l.12.07c-.53-.49.24-2.15-.3-4.08l-.12,1.38c-.22-.06-.22-.74-.26-1.69q.07.12.19-.2c-.39-.28-.46-3.26-.57-3.62-.06,1.24.27,2.78.35,4.24-.16-.52-.35-.57-.44-.98v-9.83c.04.42.06.86.12,1.26l.62-1.4c-.05.83.04,1.62-.18,1.55.26,1.01.41.55.62-.06.11,2.14-.12,2.49.27,4.13.5-3.54-.42-3,.03-7.07l-.83-1.1c.1-1.65.33.45.51-1.11-.27-1.68-.56,1.94-.95.3.23-1.02-.17-2.66-.18-3.35.23.76.75.33.85.02-.14-.64.1-2.06.12-3.15-.31,2.67-.19-2.26-.54.17-.3-.19-.53-2.71-.29-3.73.21.08.17.9.18,1.57.42.57.23-1.69.59-2.07-.43-1.91-.51-7.04-.93-8.43v-.88c.18-.3.36-.67.52-.34.07-1.22-.27-1.44-.52-2.13v-4.36c.32.64.58-2.7.86-3.25-.76-4.13.74-4.14.43-8.09-.24-2.44-.39.25-.6.11,0-1.36-.27-2.72-.1-3.79.23.15.29.95.23,1.78.49-.53-.06-1.5.26-2.97-.05.12-.14.65-.24.25.12-3.65-.4-2.06-.12-6.79-.14-.69-.14-1.36-.46-1.24.41-2.69.41-1.33.77-4.56-.19.11-.62,1.16-1.03,1.15v-.07c.56-4.49-.09-4.6.33-7.5.03.33.14.71.08,1.49.57-.37-.1-2.44,0-4.05l.49.16c-.09-1.5-.39-4.1-.05-5.98l.25.43c-.18-1.91-.23-3.98-.25-5.98-.57-1.07,1.19-1.82-1.26-3.07-.9,0-1.74.03-2.51.07l-1.66-.32c-3.95.36,3.06.21,1.61.8h-.64c-.34-.35-1.01-.17-1.96,0h-2.7c-.36-.27,2.53-.15,1.37-.55-.54.49-1.29.15-2.57.28.27-.45-2.7-.06-1.91-.57l-4.5.84h-.06c-.75-.26-2.04-.21-2.99-.15.7,0,.94.06,1,.15h-6.79s0-.14-.02-.17c-.25-.44-.15,6.19-.34,6.32.09,1.18.21,2.14.36,3.03v3.55c-.06-.05-.12-.05-.18.05h.18v3.93c-.09-.15-.17-.27-.3-.27l.25,1.78c-.2-.56-.17,1.08-.36.53.59,3.27-.22,4.59.05,7.98l.08-1.89c.19.02.24.62.28,1.27v.77c-.34.85-.31,1.43-.46,3.1.12.79.29,1.39.46,2.08v2.73c-.07.55-.05,1.45-.09,2.2-.59-1.54-1.13-2.82-1.19-4.42-.31-.33-1.02-3.01-1.4-2.49l-.03-.12c.05-.62.42-.65-.13-2.55-.67-.99-.97-3.93-.06-2.21-.17-1.47-1.3-3.42-1.84-5.92.04-.29.16-.33.21-.62-.39-.86-1.01-1.83-.88-2.83l-.28.21c-.26-1.74-.95-4.06-1.05-5.99l-1.13-1.94c-.04-1.51-.62-5.7-1.3-7.19-.2-.36-.4-.63-.6-.82l-.03-.09h-.07c-.71-.58-1.45-.3-2.11,0h-3.81c.23-.05.64-.15,1.11-.24-1.5-.03-3.35-.4-4.19.15-1.55.15-1.14-.38-2.29-.47-3.08.76-9.03-.52-10.12.56h-.94l.12-.3c-.77.21-.5-.83-2.11.51v1.6c.04,1.06.15,2.08.25,3.08.21,2,.36,3.86-.14,5.6.14,2.04.26,4.76.62,6.26l-.22-.15c.09.88.33,3.33.62,3.08v1.34c-.04-.11-.06-.21-.09-.32-.15-.28-.3,1.07-.38-.43-.28,2.7.08,4.89.31,7.35v-.69c.06.14.12.25.15.36v2.19c-.06.39-.08.94,0,1.74v.23c-.31-.83-.33-2.1-.51-2.63-.66,3.63.51,5.17-.34,7.55l-.02-.26c-.09.54.08,1.49.16,2.3.12-.25.16-1.06.25-1.61.06.62.28,1.02.47,1.28v3.03c-.2-.13-.21-1.4-.36-1.85l.23,1.77c.03,1.63-.38,1.6-.56,2.42.27,1.36.18-.82.55.3-.42,1.68-.32,8.69,0,12.36-.1-.68-.33-.25-.29-1.53-.08.53.1,2.44.37,2.45.02.21.04.43.06.65v4.38c-.06,1-.14,1.96-.23,2.82l.23-.55v4.55c-.08,1.11-.13,2.32-.04,3.6v-.07c.02.06.03.12.04.19v2.32s-.04-.01-.06,0l.28,1.11v48.12l2.82-.7s-.04.1.01.14c.31-.02.69-.08,1.09-.14h1.87c-.67.14-1.6.18-2.1.46,2.14.31,1.34-.24,3.71-.1l-.12.45,2.26-.13c-.45-.35-.53-.54-.6-.68h.81c-.13.1-.2.21-.18.29.12-.1.5-.2.67-.29h1.46c-.15.06-.3.11-.24.14l.34-.14h6.56c-.12.17-.73.34-1.59.27-1.38.1-1.25-.37-2.45-.06l1.64.37c1.39-.03,2.45-.33,3.2-.58h3.92v-4.68c.14-.02.24,0,.3.05l-.19-2.24c-.04-.11-.08-.17-.12-.21v-1.99l.24-.29c.18-.88-.49-1.76-.05-2.3.26-.28.31.6.37,1.21-.12-1.39.49-3.79.41-6.6-.06-2.15-.57-2.37-.97-3.08v-3.21s.07.06.1.03c.41-.94.11-2.31-.1-3.56v-2.91c.14-.42.28,1.43.65.33,0,1.1-.15,1.14-.18,2.64.64-2.38.05-5.36-.11-6.88-.05.44-.22.56-.18,1.4l-.18-1.58h0s0-17.74,0-17.74c.12.37.22.76.34,1.15-.02.03-.03.07-.06.09-.31,3.35.57.13.34,3.62.18.17.27-.67.34-1.65.74,2.54,1.49,5.1,2.16,7.56l.22,1.01-.46-.57c1.24,3.99,2.81,10.62,3.04,14.17.12-.74.85,3.57,1.46,4.89l4.46,20.44c-.15.6-.3,1.03-.3,1.03.25-.05.51-.09.76-.15h8.51c-.84.08-1.93.14-2.45.26.53.14,1.68.17,2.04.38.68-.19,1.62-.42,2.58-.63h1.71c.44.28,2.48.28,3.16.31-.06-.14-.25-.24-.56-.31h4.5c.24.2.65.43-.84.44.79.05.48.31.41.54.99-.13,1.76-.15,2.43-.19l.48-.02.24-.02h.11s.02-.01.02-.01c.13-.13.4-.42.98-1.02v-.04s0-.05,0-.05l-.14-.95c.28-1.17.09.8.37-.38l-.26-1.68c.06-1.24.29,1.27.35-.65-.17-.23-.35-1.79-.31-3.3l.1.43c-.12-1.16.02-2.79-.44-2.22l.47-1.38-.32.24c.12-3.16.9-4.35.49-8.44"/>
          <path class="cls-2" d="M274.38,164.36c1.05-.03,1.45.04,1.54.14-.27-.17-.63-.32-1.54-.14"/>
          <path class="cls-2" d="M285.72,166.79c.16.08.38.17.76.27-.15-.1-.42-.19-.76-.27"/>
          <path class="cls-2" d="M286.41,166.03c-.26-.1-1.2-.29-1.2-.14.63.15,1.22.43,1.84.68l-.64-.54"/>
          <path class="cls-2" d="M276.54,218.99s.02.05.04.06v-.06h-.04"/>
          <path class="cls-2" d="M268.09,206.79c-.15.56-.24,1.11-.29,1.63.06.64.13,1.18.27,1.38l.02-3.01"/>
          <path class="cls-2" d="M296.98,258.02v-1.52c.02.49.04.96,0,1.52M296.4,278.37c-1,.21-.17,2.28-1.74,4.32-.52.52-.01-.47.2-1.07.57-1.18,1.02-2.5,1.37-3.95.12-.08.2.08.17.71M282.71,228.73c.14.09.33.2.51.35.04.09.09.18.17.28-.12-.11-.24-.21-.37-.34-.09-.09-.21-.19-.31-.29M274.38,293.03v-.4c1.09-.06,2.21-.15,3.35-.28-1.12.28-2.16.51-3.35.68M272.68,293.37c-1.84.26-1.38-.4-3.52-.2.08-.23.38-.37.68-.47.24,0,.45.01.69.01,1.11,0,2.34-.02,3.64-.09-.81.3-2.82.53-1.49.75M243.17,270.64c.05-.27.15-.43.25-.59v.55c-.07-.08-.15-.08-.25.04M249.69,245.63c1.13.03,2.82.15,2.82.3-.19.04-.46.1-.79.17h-4.26c.83-.13,1.6-.3,2.23-.46M257.14,246.09h-1.41c.05-.03.12-.05.16-.08.68-.06,1.01-.01,1.25.08M275.29,263.64c0,.68,0,1.52,0,2.96,0,.11-.01.26-.02.38-.09-1.18-.32-2.18.03-3.33M274.46,261.33c.38-.93-.18-1.21,0-2.68.35-.52.33,1.22.51,1.76l-.23-1.76c-.02-.7.06-1.08.15-1.36.25,1.17.4,2.45.4,3.83v.21c-.09.32-.15,1-.22,1.48-.08-.8-.46-1.22-.61-1.49M243.41,189.58s0-.01,0-.01v.8c0-.27,0-.52,0-.79M262.96,165.13c-.14.01-.28.04-.42.06.14-.03.28-.06.42-.06M280.33,165.09c3.13.69,1.06.43.9.74-.96-.25-1.95-.46-2.92-.62.71-.08,1.42-.16,2.02-.12M296.98,215.73v-1.71c.05.19.1.37.16.52-.06.38-.11.79-.16,1.18M293.14,218.47h.61s-.04.02-.06.02c-.23,0-.39,0-.55-.02M282.74,218.47h4.47l.3.19c-1.66.06-3.16-.09-4.77-.19M272.66,188.58c.7.21,1.33.68,1.79,1.61-.52-.81-1.17-1.28-1.79-1.61M268.13,214.02c-.04-.07-.08-.13-.12-.21.04.08.08.14.12.21M267.62,211.93c-.08.41,0,.89.15,1.34-.21-.53-.37-1.13-.49-1.77.09-.1.19,0,.33.43M273.72,219.99c-.44-.45-.87-.87-1.29-1.3.52.44,1,.92,1.29,1.3M285.64,231.28c.28.22.55.47.8.74-.03-.14,0-.24.1-.28l.79.88c-.7-.37-1.28-.87-1.69-1.34M293.77,240.92c-.07,0-.14-.04-.24-.11-.46-.72-.98-1.46-1.57-2.24.72.8,1.47,1.57,1.8,2.36M296.86,248.74c-.02.22-.05.41-.08.58-.02-.2-.04-.38-.08-.58.06.03.09.03.15,0M295.36,244.18c.16.26.3.57.44,1.08-.14-.36-.29-.72-.44-1.08M296.98,254.17v-2.11c.07-.05.15-.08.22-.08-.12.89-.19,1.59-.22,2.19M297.01,271.41c-.08-1.42.29-2.56.51-2.44.03-2.32-.17-.25-.51-1.43l.68-1.53c-.1-3.64-.27-7.85-.36-12.2.1-4.29-.18-9-2.47-12.7l-.05.74c-1.76-3.43-4.42-4.6-6.12-7.58l-.69-.35c-.06-.06-.12-.13-.19-.19.19-.13-.06-.81.69-.39-.62-.49-1.18-1.07-1.77-1.58.04,0,.09,0,.17.04-2.35-2.06-3.55-2.68-5.92-5.28-.54-.29-.7-.24-.71-.06-.59-.57-1.19-1.15-1.81-1.74,1.82,1.39,3.25,2.35,2.67,1.12-.55-.76-1.28-1.1-2.05-1.73,1.91,2-.33.41-.62.39-.78-.92-2.47-2.06-1.9-2.01l1.63.99c-3.65-4.16-11.08-8.15-10.39-15.05-.05-.48-.08-1.01-.13-1.5l-.66,1.48c.04-.86-.05-1.7.18-1.61-.09-.35-.17-.53-.24-.59v-13.44c.08-.76.24-1.46.63-1.99,1.44-1.2,1.3-1.58,1.39-1.82.51-.27,1.11-.42,1.75-.48l-.4.7c1.59-.38,3.84.78,4.45,3.03.22,2.27.22,4.71.57,6.47v.27c-.09.35-.19.85-.28-.13,0,.96.13,1.41.28,1.78v3.08c-.09.51-.2.94-.37.58l-.05-.55c.05,2.4.29,5.59.26,7.17.05,0,.11-.06.17-.15v7.77h.22c.02.26.04.52.07.77.23-.15.56-.22.93-.25-.02-.04-.05-.07-.08-.12.04.04.08.08.11.12h0c.06.08.14.16.22.25h0s0-.06,0-.06c0-.07,0-.14,0-.22.48-.03,1.02,0,1.58,0-.11.1-.08.27.25.4,2.91-.24,7.86-.58,10.73-.26,2.74.14,4.77-.04,7.8-.2.03-10.05-.09-22.87-.02-34.78l-.35-.78c-.11-1.12-.28-2.19-.52-3.2.01-.15.06-.23.16-.18.02.67.19,1.27.32,2.04.31-2.71-1.48-6.67-3.06-9.11.07.27-.02.76-.28.74-.08-.11-.16-.24-.25-.35.26-.59-2.12-2.53-2.4-3.53-2-1.72-.64.12-2.27-.82-.13-.08-.25-.15-.38-.22-.03-.03-.07-.04-.11-.08h0c-1.41-.87-2.93-1.56-4.51-2.11.86.09,1.63.16,2.2.28-.4-.19-.46-.38-1.29-.56.51.08,1.05.11,1.56.25-1.42-.91-2.81-1.53-6.55-1.85l-2.85.22c-.31-.07-.46-.22-.66-.35.07.1-.18.22-.37.33-1-.1-1.97-.18-2.92-.21.18-.05.39-.1.67-.15l-1.13.14c-.56,0-1.12-.03-1.66-.03-1.88,0-3.85.09-5.89.31-.06-.45,3.48-.08,2.4-.56-1.4.03-3.51.17-4.57.79l-2.23-.16.77.53c-.25.05-.51.11-.77.16.35-.34-.57-.59-1.72-.63-.22.64-3.7,1.06-3.86,1.78,1.6-.76,3.09-.78,3.31-.51-2.19.7-4.29,1.7-6.18,3.04.61-.72,1.09-1.29,1.51-1.65-.66.14-1.37.58-2.09,1.35l.1-.02c.62-.29.54.16-.04.71-.21.16-.41.31-.6.47-.04.04-.07.06-.1.08-.03.03-.06.05-.08.07-.29.25-.56.5-.84.76-.26.18-.47.33-.73.76-1.06,1.16-2.01,2.51-2.82,4.06.02-.34.03-.59-.31-.03.05.13.1.26.15.36-.04.08-.08.16-.12.25-.52.15-.39-.37-1.64,2.53-.08.63-.08,1.59-.03,2.44-.45,2-.69,4.24-.73,6.72-.12-.36-.26-.94-.33-1.75-.21,2.57.07,4.83.32,7.13v4.63s-.03-.03-.05-.04c.02.96.04,1.93.05,2.91v8.75c-.02.72-.05,1.31-.09,1.77.05,1,.24,1.56.54,2.16.73,3.59,2.38,8.03,5.34,12.48-.02.07-.02.19,0,.39,7.26,9.44,15.65,17.65,20.5,21.54l-1.35-.85c2.07,1.5,3.18,2.86,3.95,4.11.2.29.41.56.59.82.66,1.09,1.2,2.26,1.62,3.56,0,.01,0,.03.01.04l-.59-.55c-.16,2.39.85,4.58.23,7.08l.24-.25c0,.66-.11.93-.11,1.59l.11-.26c.23,1.76.21,2.81.03,4.54-.19.13-.08-.8-.12-1.34-.2.62.16,1.86.14,2.84.1-.35.17-.82.12-1.49.11.27.18.59.23.92-.1.25-.22.5-.37.74.01-.06.01-.12.02-.17-.08.27-.21.47-.34.62v.04c-.17.21-.34.42-.55.6.1-.11.17-.25.26-.4-.44.29-.94.42-1.21,1.05-.58.28-1.27.46-2.09.46-1.47,0-2.59-.62-3.36-1.69.01-.09-.09-.3-.36-.63l-.05-.03c-.36-.7-.62-1.55-.75-2.51.11-.29.21-.67.21-1.26-.04-.99-.19-1.49-.35-1.89v-17.78h-.15c.03-.06.03-.13.05-.18-.08-.05-.15-.07-.23-.1.1.13.09.2.05.28h-.43c-.04-.19-.12-.33-.36-.4l-1.99-.02c.7-.13.18-.36,1.11-.4-2.22-.48-3.99.15-6.31.14,1.42-.46-2.54-.05-1.94-.55-.76,1.03-7.74-.45-8.23.85-3.75-.22.06-.25-4.58.11.42-.8.83-.33,1.21-.5-.55.23-.51-.74-1.4.64l.13.96c.1.61.15,1.18-.13,1.88-.1,3.41.34.58.69,2.59-.15,3.55-.32,2.54-.86,4.5.62.32.33,2.44.63,4.16.02-.38.12-2.14.29-1.71v4.22c-.21-1.55-.23-1.55-.66-2.67-.05,3.27.07,5.18.36,8.76-.1,1.97-.31-1.03-.38.53-.28,3.2.41,5.08.84,7.42.03.28.07.53.12.8l-.46-.48c.35.74.76,2.19,1.4,3.75,0,.01,0,.01.02.02.68,1.7,1.63,3.52,2.98,4.7,1.43,1.55,3.34,3.01,5.9,4.21.07.05.14.1.21.14,0,0,.01-.02.02-.04.63.29,1.28.57,1.97.82-.67-.03-1.33-.06-2.48-.49,2.02.79,5.31,2.24,7.25,2.15l-.81.27c2.92.75,2.72-.43,5.7.38l-.33.28c6.16.51,13.68.95,18.42-1.05.26-.22-.92-.33-1.7-.45,1.85-.46,3.69-1.09,5.41-2,.13.05.46,0,1.28-.3,4.27-1.7,8.31-8,8.84-13.17-.58-.61.24-3.28-.28-4.08.2-.12.37-.5.57-.63-.14-3.25-.34.76-.57-.03"/>
          <path class="cls-2" d="M286.11,290.84c-.29.11-.63.3-1.1.44-.36.21.26,0,1.1-.44"/>
          <path class="cls-2" d="M264.92,245.28h-.95s-.02,0-.04,0c.51.1,1.05.28,1.61.53-.09-.12-.26-.29-.62-.54"/>
          <path class="cls-2" d="M274.09,269.77c-.07.22-.16.41-.26.59.1-.06.19-.15.29-.24,0-.13.02-.3-.03-.35"/>
        </g>
        <g>
          <path class="cls-3" d="M33.83,326.63h-5.76v-3.85c0-1.12-.06-1.82-.18-2.09-.12-.28-.39-.42-.81-.42-.47,0-.77.17-.9.51-.13.34-.19,1.07-.19,2.19v10.28c0,1.08.06,1.78.19,2.11s.42.49.86.49.71-.16.84-.49.2-1.1.2-2.32v-2.78h5.76v.86c0,2.29-.16,3.92-.49,4.87s-1.04,1.8-2.15,2.52-2.47,1.08-4.09,1.08-3.08-.31-4.17-.92-1.82-1.46-2.17-2.54-.53-2.7-.53-4.87v-6.47c0-1.59.05-2.79.16-3.59.11-.8.44-1.57.98-2.3s1.29-1.32,2.26-1.74,2.07-.64,3.32-.64c1.7,0,3.09.33,4.2.98,1.1.66,1.83,1.47,2.17,2.45s.52,2.5.52,4.57v2.1Z"/>
          <path class="cls-3" d="M48.88,329.95c0,2.22-.05,3.8-.16,4.72-.1.93-.43,1.77-.98,2.54s-1.3,1.35-2.24,1.76-2.03.62-3.28.62c-1.18,0-2.25-.19-3.19-.58s-1.7-.97-2.28-1.74c-.57-.77-.92-1.62-1.03-2.53-.11-.91-.16-2.51-.16-4.79v-3.79c0-2.22.05-3.8.16-4.72.1-.92.43-1.77.98-2.54s1.3-1.35,2.24-1.76,2.03-.62,3.28-.62c1.18,0,2.25.19,3.19.58.94.39,1.7.97,2.28,1.74.57.77.92,1.62,1.03,2.53.11.91.16,2.51.16,4.79v3.79ZM43.12,322.68c0-1.03-.06-1.69-.17-1.98s-.35-.43-.7-.43c-.3,0-.53.12-.69.35s-.24.92-.24,2.06v10.34c0,1.29.05,2.08.16,2.38s.35.45.73.45.64-.17.75-.52c.11-.35.16-1.17.16-2.47v-10.17Z"/>
          <path class="cls-3" d="M56.61,316.99v17.71h3.5v4.43h-9.26v-22.13h5.76Z"/>
          <path class="cls-3" d="M67.09,316.99v17.71h3.5v4.43h-9.26v-22.13h5.76Z"/>
          <path class="cls-3" d="M71.82,316.99h9.6v4.43h-3.84v4.2h3.6v4.21h-3.6v4.87h4.22v4.43h-9.98v-22.13Z"/>
          <path class="cls-3" d="M96.73,326.63h-5.76v-3.85c0-1.12-.06-1.82-.18-2.09-.12-.28-.39-.42-.81-.42-.47,0-.77.17-.9.51-.13.34-.19,1.07-.19,2.19v10.28c0,1.08.06,1.78.19,2.11s.42.49.86.49.71-.16.84-.49.2-1.1.2-2.32v-2.78h5.76v.86c0,2.29-.16,3.92-.49,4.87s-1.04,1.8-2.15,2.52-2.47,1.08-4.09,1.08-3.08-.31-4.17-.92-1.82-1.46-2.17-2.54-.53-2.7-.53-4.87v-6.47c0-1.59.05-2.79.16-3.59.11-.8.44-1.57.98-2.3s1.29-1.32,2.26-1.74,2.07-.64,3.32-.64c1.7,0,3.09.33,4.2.98,1.1.66,1.83,1.47,2.17,2.45s.52,2.5.52,4.57v2.1Z"/>
          <path class="cls-3" d="M110.22,316.99v4.43h-3.42v17.71h-5.76v-17.71h-3.4v-4.43h12.58Z"/>
          <path class="cls-3" d="M117.12,316.99v22.13h-5.76v-22.13h5.76Z"/>
          <path class="cls-3" d="M119.26,316.99h5.74c1.81,0,3.19.14,4.12.42.93.28,1.69.85,2.26,1.71s.86,2.25.86,4.16c0,1.29-.2,2.2-.61,2.71-.41.51-1.21.9-2.4,1.17,1.33.3,2.23.8,2.71,1.5.47.7.71,1.77.71,3.21v2.05c0,1.5-.17,2.6-.51,3.32-.34.72-.89,1.21-1.63,1.48-.75.26-2.28.4-4.59.4h-6.66v-22.13ZM125.02,320.78v4.92c.25,0,.44-.01.57-.01.56,0,.92-.14,1.08-.42.15-.28.23-1.07.23-2.39,0-.69-.06-1.18-.19-1.46-.13-.28-.29-.45-.5-.53-.21-.07-.6-.11-1.2-.12ZM125.02,329.14v6.19c.81-.03,1.33-.15,1.55-.38.22-.23.33-.79.33-1.68v-2.06c0-.95-.1-1.52-.3-1.72-.2-.2-.73-.31-1.59-.34Z"/>
          <path class="cls-3" d="M140.31,316.99v17.71h3.5v4.43h-9.26v-22.13h5.76Z"/>
          <path class="cls-3" d="M145.04,316.99h9.6v4.43h-3.84v4.2h3.6v4.21h-3.6v4.87h4.22v4.43h-9.98v-22.13Z"/>
          <path class="cls-3" d="M179.48,326.63h-5.76v-3.85c0-1.12-.06-1.82-.18-2.09-.12-.28-.39-.42-.81-.42-.47,0-.78.17-.9.51-.13.34-.19,1.07-.19,2.19v10.28c0,1.08.06,1.78.19,2.11.13.33.41.49.86.49s.71-.16.84-.49c.13-.33.2-1.1.2-2.32v-2.78h5.76v.86c0,2.29-.16,3.92-.49,4.87-.32.96-1.04,1.8-2.15,2.52s-2.47,1.08-4.09,1.08-3.08-.31-4.17-.92-1.82-1.46-2.17-2.54-.53-2.7-.53-4.87v-6.47c0-1.59.05-2.79.16-3.59.11-.8.43-1.57.98-2.3.54-.74,1.29-1.32,2.26-1.74.96-.42,2.07-.64,3.32-.64,1.7,0,3.09.33,4.2.98,1.1.66,1.83,1.47,2.17,2.45.35.98.52,2.5.52,4.57v2.1Z"/>
          <path class="cls-3" d="M191.32,316.99l3.29,22.13h-5.88l-.31-3.98h-2.06l-.35,3.98h-5.95l2.94-22.13h8.32ZM188.27,331.22c-.29-2.51-.58-5.61-.88-9.3-.59,4.24-.96,7.34-1.1,9.3h1.98Z"/>
          <path class="cls-3" d="M195.43,316.99h4.07c2.72,0,4.55.1,5.52.31.96.21,1.75.75,2.35,1.61.61.86.91,2.24.91,4.12,0,1.72-.21,2.88-.64,3.47-.43.59-1.27.95-2.53,1.07,1.14.28,1.9.66,2.3,1.13.39.47.64.91.73,1.31s.14,1.49.14,3.27v5.84h-5.35v-7.36c0-1.18-.09-1.92-.28-2.2-.19-.28-.68-.42-1.47-.42v9.98h-5.76v-22.13ZM201.18,320.78v4.92c.65,0,1.1-.09,1.36-.27s.39-.75.39-1.73v-1.22c0-.7-.13-1.16-.38-1.38-.25-.22-.71-.33-1.37-.33Z"/>
          <path class="cls-3" d="M210.34,316.99h4.31c2.78,0,4.66.13,5.64.38.98.26,1.72.67,2.24,1.26.51.58.83,1.23.96,1.95.13.72.19,2.12.19,4.22v7.75c0,1.99-.09,3.32-.28,3.99-.19.67-.51,1.19-.98,1.57-.46.38-1.04.64-1.72.79s-1.71.23-3.09.23h-7.26v-22.13ZM216.09,320.78v14.56c.83,0,1.34-.17,1.53-.5.19-.33.29-1.24.29-2.71v-8.6c0-1-.03-1.65-.1-1.93-.06-.28-.21-.49-.44-.62-.23-.13-.66-.2-1.29-.2Z"/>
          <path class="cls-3" d="M248.39,325.14h-5.76v-2.01c0-1.27-.05-2.06-.16-2.38-.11-.32-.37-.48-.78-.48-.36,0-.6.14-.72.41-.13.27-.19.98-.19,2.11v10.62c0,.99.06,1.65.19,1.96.13.31.38.47.77.47.42,0,.7-.18.85-.53s.23-1.05.23-2.08v-2.62h-1.16v-3.36h6.74v11.88h-3.62l-.53-1.59c-.39.68-.89,1.2-1.48,1.54-.6.34-1.3.51-2.11.51-.97,0-1.87-.23-2.72-.7s-1.48-1.05-1.92-1.74c-.44-.69-.71-1.42-.82-2.18-.11-.76-.16-1.9-.16-3.42v-6.58c0-2.11.11-3.65.34-4.61.23-.96.88-1.83,1.96-2.63,1.08-.8,2.48-1.2,4.19-1.2s3.08.35,4.2,1.04c1.11.69,1.84,1.52,2.17,2.47.34.95.51,2.34.51,4.15v.96Z"/>
          <path class="cls-3" d="M260.4,316.99l3.29,22.13h-5.88l-.31-3.98h-2.06l-.35,3.98h-5.95l2.94-22.13h8.32ZM257.35,331.22c-.29-2.51-.58-5.61-.88-9.3-.59,4.24-.96,7.34-1.1,9.3h1.98Z"/>
          <path class="cls-3" d="M282.26,316.99v22.13h-5.03v-14.94s-2.01,14.94-2.01,14.94h-3.57l-2.11-14.6v14.6h-5.04v-22.13h7.45c.22,1.33.45,2.9.68,4.71l.82,5.63,1.32-10.34h7.49Z"/>
          <path class="cls-3" d="M284.4,316.99h9.6v4.43h-3.84v4.2h3.6v4.21h-3.6v4.87h4.22v4.43h-9.98v-22.13Z"/>
        </g>
        <g>
          <path class="cls-3" d="M302.16,286.5h-1.48v-1.03h4.38v1.03h-1.48v5.86h-1.41v-5.86Z"/>
          <path class="cls-3" d="M307.11,292.36h-1.16v-6.89h1.98l1.1,5.27h0l1.1-5.27h1.97v6.89h-1.16v-5.79h0l-1.21,5.79h-1.41l-1.21-5.81h0v5.81Z"/>
        </g>
      </g>
    </g>
  </g>
</svg>