<?xml version="1.0" encoding="UTF-8"?>
<svg xmlns="http://www.w3.org/2000/svg" version="1.1" viewBox="0 0 570.94 474.85">
  <defs>
    <style>
      .cls-1 {
        fill: #683190;
      }

      .cls-2 {
        fill: #ffd200;
      }

      .cls-3 {
        fill: #e21f3a;
      }

      .cls-4 {
        fill: #afb6ba;
      }

      .cls-5 {
        fill: #282473;
      }

      .cls-6 {
        fill: #ffdc00;
      }

      .cls-7 {
        fill: #dac692;
      }
    </style>
  </defs>
  <!-- Generator: Adobe Illustrator 28.6.0, SVG Export Plug-In . SVG Version: 1.2.0 Build 709)  -->
  <g>
    <g id="Layer_1">
      <g>
        <path d="M386.73,100.43c-3.74,4.66-8.38,9.18-12.96,13.07,7.22-1.36,14.25-3.3,21.8-3.95,1.29-.78,2.51-1.75,4-2,11.22.64,20.96,5.1,31.15,8.34,7.68-2.65,15.42-4.98,23.74-6.21,4.96,7.7,8.84,15.78,12.25,24.12l4.32.39c15.16,7.5,25.93,23.55,36.83,36.34,2.45-.71,4.9-1.42,6.97-2.98,4.65,3.75,6.51,8.93,10.64,13-.07,1.94-.58,3.56-1.48,5.11,4.9,2.07,10.19,3.56,14.96,6.08,5.43,1.04,10.45,3.23,16.45,2.46l5.03-.58c3.94,2.65,7.61,6.53,10.51,10.28-4.91.71-7.8-3.56-12.38-3.95-1.42,0-2.77.07-4.13.26l2.77,1.23c1.55,4.07,4.65,7.5,5.61,11.84.58,2.65.71,5.49.64,8.28-.71-1.17-1.48-2.34-2.38-3.5.32,2.79.58,5.63.51,8.54l-4-6.21c.07,1.75,0,4.01-.26,5.89-5.6-10.16-16.19-19.66-27.86-20.7-6.77-.58-13.22.84-19.99.45-1.04,1.3-1.23,2.91-1.42,4.53-.38,3.75-.19,7.75-1.16,11.25-5.35-5.95-6.32-13.71-6.77-21.73l3.41-.25c2.45-.91,4.71-2.21,7.04-3.44h.19v-1.68c-1.62.51-3.23.97-4.97,1.17-2.58-3.3-4.83-7.05-8.26-9.77-.19-2-.07-4.14.26-6.02-6.06-5.56-12.7-9.76-20.12-12.09l-.07.13c7.68,31.5,10.45,67.9,5.68,101.6-4.12,17.59-12.96,33.31-23.09,48.37.77,6.02,1.55,12.04,2.97,17.79,7.87,1.17,15.55,2.71,22.76,5.49l5.29,6.28,9.87,12.93c2.84-1.16,5.68-2.14,8.71-2.78,4.19,3.88,6.13,9.18,10.65,12.74.97,2.52,1.55,5.11,1.93,7.76,1.68,2.85,4.84,3.63,7.49,4.98,7.93,13.26,24.96,20.56,29.99,35.11,3.48,9.19,5.48,19.01,6.57,29.11-3.86,3.37-7.99,6.27-12.25,8.73-8.7-6.53-14.96-15.53-21.87-23.61l-.52-2.71c-4.12-6.98-6.19-14.87-9.35-22.31-2.58-5.95-5.09-12.03-10.19-16.75-1.93.66-3.86,1.43-5.74,2.4-3.87-4.01-9.36-4.14-14.19-5.82-1.16-2.52-1.74-5.23-2.32-7.95-5.68-1.68-11.61-2.52-17.35-3.95-7.54-2.46-13.93-7.82-20.12-13.58-2.9-.78-5.61-1.74-8.38-2.85-1.61-4.39-3.49-8.73-5.55-12.99-4.84,5.44-9.74,10.99-14.83,16.42l-13.42,13.78-14.45,13.96-15.42,14.03-17.41,15.08-18.45,15.13-16.96,13.12-4.13,3.04c-15.48.78-27.35-7.43-42.38-8.02l-1.09-.13,17.86-12.29,7.74-5.25c-1.74-2.38-3.94-5.3-6.64-6.59-8.77,2.65-18.71,9.58-28.19,3.69l-5.93-4.2-18.13-14.16c-3.48-2.58-7.03-5.11-10.64-7.43-2.78,3.62-5.29,7.37-7.81,11.13,2.52,1.55,4.71,4.07,5.48,6.73-3.87,8.72-13.42,15.13-14.38,25.02-1.87,1.75-4,2.98-6,4.2-2.71,5.82-3.81,13.07-2.39,19.86,1.42,2.71,2.58,5.63,2.9,8.73-6.77,1.17-13.8,1.61-20.96,1.94l-25.67.65c-6.77.46-13.8.32-20.57,0l-17.28-1.03c1.22-3.23,2.77-6.35,5.09-9.06l2.64-.13c3.74-3.43,7.73-6.46,11.74-9.24,7.09-.71,14.25-1.17,20.77-3.37l1.93-.97,2.06.58c8.26-4.34,17.03-7.3,24.51-13.39,1.03-.91,2.06-2.01,2.9-3.04-.58-1.75-1.61-3.43-3.28-4.59,1.49-4.34,4.84-7.89,5.93-12.43,1.23-4.53,1.74-9.37,1.94-14.29,2.96.06,6.13-.07,9.09.25l.2-.32,5.41-15.39c-8.26-3.62-19.22-2.52-28.25-1.55-14.83,1.81-28.64,6.46-44.37,5.56-9.16-1.3-17.35-4.98-25.48-8.79-28.64-14.29-55.66-33.7-78.88-59.76-2.91-3.37-5.81-6.86-8.38-10.41-2.07-11.44.06-23.47.45-34.87-12.19,5.05-24.06,10.94-35.47,17.86,2.84-11.76,7.29-22.89,14.39-32.92l11.22-15.33,14.51-1.81,23.02-2.07,31.47-2.46,19.16-1.94,15.67-2.07,15.35-2.46,16.39-3.24,15.16-3.56,15.03-3.94,17.68-5.36,11.54-3.88c1.09-1.23,2.19-2.45,3.1-3.81l4.19,1.29,16.9-6.4,18.45-7.5,17.15-7.51,10.65-4.98c3.48-4.2,7.54-8.66,12-11.63l2.71-.52c1.8-3.62,4.9-6.73,7.03-10.21,1.48-.78,3.03-1.3,4.58-1.88.52-1.22.97-2.59,1.16-3.95l-2.77-.19c1.42-3.62,2.52-7.37,4.2-10.87-20.52-2.59-38.96-10.15-56.25-20.5-1.48-22.44,2.26-43.46,8.38-63.06l7.23-24.13,1.74-6.33c6.58-6.34,13.87-11,21.09-15.79l14.96-9.18,14.06-8.02c29.22,29.03,50.44,61.37,55.6,100.43"/>
        <path d="M358.22,104.64l.45,3.43c-9.93,11.06-20.9,21.27-33.02,27.74-2.19,1.04-5.43,2.75-6.77,2.65,1.67-.98,7.8-4.58,9.35-5.88-15.35-.71-31.22-1.68-44.89-6.4-1.23-.45-2.45-.97-3.61-1.68l-1.23,3.1c-5.41-17.39-2.83-38.61.33-56.26,1.23-6.66,2.78-13.32,4.45-19.85-.13-1.75-.13-3.56,0-5.24,2.97,8.8,8.58,16.95,16.32,23.41,4.64-11.25,16.26-21.02,27.16-25.54,18.13,16.88,27.21,37.77,31.47,60.53"/>
        <path class="cls-2" d="M331.46,80.13c-3.29,3.42-8.06,4.53-12.77,3.56-2.65-.65-5.03-1.88-7.22-3.75,1.68-2.91,4.13-5.69,6.9-8.22.26,2.33,1.09,4.66,3.23,6.08,1.41.97,3.48,1.29,5.22.77,2.71-.84,4.51-3.68,4.65-6.4.19-2.78-.77-5.24-3.03-6.92,2.32-.97,4.71-1.75,7.22-2.33.45,6.21-.26,12.55-4.19,17.21"/>
        <path class="cls-1" d="M330.75,72.3c-.19,2.46-1.94,5.04-4.39,5.69-1.67.39-3.41,0-4.71-.96-1.8-1.56-2.58-3.62-2.51-5.95l1.93-1.49c-.58,1.3-.38,3.11.39,4.2.71.97,1.68,1.55,2.77,1.62,1.49.06,2.97-1.03,3.48-2.4.51-1.36.39-3.17-.45-4.34-.65-.84-1.55-1.36-2.58-1.54l2.97-1.55c2.32,1.42,3.36,4.01,3.1,6.72"/>
        <path class="cls-2" d="M289.14,73.33c-1.67.91-2.58,2.66-2.77,4.47-.19,2.33.78,4.66,2.97,5.75,1.29.58,3.03.26,4.06-.64,1.16-.9,1.61-2.14,1.94-3.37l1.67,2.2c-1.55,2.59-4.07,5.56-7.29,5.56-1.61.14-3.16-.77-3.87-2.26-2.07-4.2-2.52-9.18-2.71-14.1,2.12.38,4.19,1.17,5.99,2.39"/>
        <path class="cls-1" d="M290.43,74.24c-.77.2-1.49.78-1.87,1.49-.58,1.22-.45,2.97.52,3.94.58.58,1.29.97,2.13.84.77-.13,1.49-.78,1.8-1.49.26-.51.39-1.09.39-1.81l1.29,1.68c-.13,1.55-.84,2.98-2.25,3.88-.72.39-1.75.46-2.52.26-1.61-.52-2.58-2.2-2.83-3.75-.26-1.88.26-3.56,1.61-4.85.51-.2,1.22-1.11,1.74-.2"/>
        <path class="cls-1" d="M337.07,112.77h0c-7.96,7.37-16.6,10.42-27.67,13.91-7.48-5.63-15.8-10.74-21.74-18.69-.77-4.53-.58-9.71,0-14.23,5.81.98,11.1,3.56,15.35,8.08,8.13-6.4,16.96-11.06,26.38-14.42,4.19,7.05,7.68,15.04,7.68,25.34"/>
        <path class="cls-1" d="M333.63,121.39l-1.21-2.96c6.72-4.12,10.85-10.67,14.27-16.17-1.29,6.79-6.49,15.83-13.06,19.13"/>
        <path class="cls-1" d="M465.29,133.74l-7.93-.46c.71.97,1.74,1.94,2.52,2.85-4.32-2.27-8-5.95-11.99-8.99l2.33-.05c4.2-.09,4.34-1.44.08-1.36-16,.31-30.39,4.44-45.05,8.14-9.48,2.33-18.64,5.31-27.99,8.02l-.52-2.78,9.61-3.81,30.5-12.87c12-4.66,23.87-9.18,36.9-11.32,4.71,7.18,8.38,14.81,11.54,22.64"/>
        <path class="cls-1" d="M437.94,128.82c6.58,3.42,13.16,6.92,19.41,11.05,0-.96,0-2.13-.12-3.1,1.22,2.33,3.48,4.26,4.32,6.79.84-1.42,1.48-3.3,1.23-5.23,3.93,4.07,8.45,6.85,13.67,7.69,6.39,5.24,10.13,12.1,16.32,17.33,3.87,2.72,7.93,5.11,11.67,8.15-1.03.39-2,.83-2.9,1.55-8.97-5.5-17.23-12.87-27.61-15.01-4.19-3.94-6.38-8.73-9.09-13.32-.71,1.62-1.35,3.3-2.26,4.85-.84-1.87-1.81-4.07-3.35-5.82-.26.84-.32,2-.07,2.91-8.84-5.69-17.8-10.92-27.99-13.26-2.91-.71-5.81-1.29-8.84-1.75,4.84-1.36,9.87-2.33,15.03-2.91l.58.07"/>
        <path class="cls-7" d="M374.22,137.3c1.94,3.42,1.74,8.72-.32,12.02-2.12,3.5-5.67,5.5-9.74,4.98-3.28-.46-6.32-3.17-7.61-6.15-1.87-4.01-1.16-9.5,1.61-12.8,2.32-2.72,5.42-4.01,8.97-3.43,2.9.52,5.68,2.65,7.09,5.37"/>
        <path class="cls-2" d="M374.22,137.3c1.94,3.42,1.74,8.72-.32,12.02-2.12,3.5-5.67,5.5-9.74,4.98-3.28-.46-6.32-3.17-7.61-6.15-1.87-4.01-1.16-9.5,1.61-12.8,2.32-2.72,5.42-4.01,8.97-3.43,2.9.52,5.68,2.65,7.09,5.37"/>
        <path d="M371.77,138.52c1.35,2.52,1.35,6.34-.07,8.86-1.42,2.33-3.81,4.14-6.58,3.88-2.13-.13-4-1.23-5.22-3.04-1.81-2.46-2.26-6.34-.97-9.18,1.03-2.4,3.42-4.6,6.06-4.66,2.9-.32,5.55,1.62,6.78,4.14"/>
        <path class="cls-3" d="M371.27,138.87c1.25,2.32,1.25,5.83-.06,8.16-1.3,2.14-3.5,3.81-6.05,3.57-1.96-.11-3.68-1.13-4.81-2.79-1.67-2.26-2.08-5.84-.89-8.45.95-2.21,3.14-4.23,5.58-4.29,2.67-.29,5.11,1.49,6.23,3.81"/>
        <path class="cls-1" d="M371.27,138.87c1.25,2.32,1.25,5.83-.06,8.16-1.3,2.14-3.5,3.81-6.05,3.57-1.96-.11-3.68-1.13-4.81-2.79-1.67-2.26-2.08-5.84-.89-8.45.95-2.21,3.14-4.23,5.58-4.29,2.67-.29,5.11,1.49,6.23,3.81"/>
        <path class="cls-1" d="M339.84,174.23c5.29,5.04,13.74,4.65,20.71,3.49-.51,5.24,3.16,8.99,6.9,12.42,3.1,2.84,6.45,5.23,9.35,8.34-1.99,5.63-.06,11.77,2,16.82l-.9,3.3c-2.71,1.03-5.09,3.75-5.93,6.46-2.19-.06-4.52-.19-6.84-.19,2.91-3.56,7.22-6.54,8.71-10.67-.58-2.52-1.16-4.98-2.58-7.11l.26-9.12c-3.87-5.37-9.68-7.24-14.96-9.63-1.48-1.42-2.59-3.11-3.42-4.85,1.36-.59,2.71-1.36,3.74-2.72h-.06c-6.64,1.42-15.74,2.72-20.7-3.11-4-4.58-2.32-11.77-2.12-17.59.83,5.17,2.32,10.09,5.86,14.17"/>
        <path class="cls-1" d="M379.25,177.98c-7.67,1.1-14.84-2.07-18.9-8.8-1.03-1.88-1.87-3.88-2.2-6.08,3.16,7.31,10.83,10.28,18.45,10.02,8.25-.71,14.97-5.43,20.51-11.97-2.32,7.64-9.48,15.91-17.86,16.82"/>
        <path class="cls-1" d="M476.13,167.5c7.55,30.78,10.38,65.71,6.39,99.02-1.35,8.6-4.45,16.49-7.94,24.13-4.12,8.85-9.09,17.26-14.64,25.54l-2.96-21.21-1.29-8.09c4.58-7.95,8.71-16.16,12.45-24.5,4.84-21.22,4.25-45.86,2.32-68.17l-1.74-16.18-2.13-14.1c3.16,1.29,6.39,2.46,9.55,3.56"/>
        <path class="cls-1" d="M320.04,173.58c0,.65.65,1.1,1.22,1.29.71.26,1.49.26,2.32.32-2.71.91-6,4.27-8.71,1.16l-1.09-1.55c1.67-1.03,2.58-2.91,2.84-4.72,1.87-1.36,3.87-2.39,5.93-3.37-.58,2.34-2.32,4.41-2.51,6.86"/>
        <path class="cls-1" d="M403.76,178.88l.07,8.47.9,18.05.06.38c2,2.98,3.74,5.95,5.42,8.99-1.29-.39-2.84-.65-4.26-.32-1.55-2.59-3.23-5.31-5.16-7.77-.13-8.09-1.48-15.71-2.39-23.54-3.03-2.72-6.32-4.91-9.61-7.05,2.51-2.14,5.16-4.66,6.97-7.38,3.23,3.17,5.8,6.59,8,10.15"/>
        <path class="cls-1" d="M524.3,181.01c-.13,1.55-.58,2.91-1.42,4.2l-4.25-1.87c.13-.84,1.03-1.56,1.74-2.13-3.8.13-7.48,1.54-9.61,4.98.51,2.33.19,4.92,0,7.31-1.42.52-2.91.9-4.45,1.17-2.39-3.1-4.52-6.47-7.68-9.12,0-4.41.19-9.25,4.12-11.84,3.88-2,8.32-2.39,12-4.72,4.07,3.63,5.8,8.28,9.55,12.03"/>
        <path class="cls-1" d="M318.36,179.07c-2.71,3.23-7.8,3.49-8.77,8.08-5.8,2.98-12.39,4.07-17.48,8.79-4.19,3.3-8.19,7.24-12.06,11.19l-2.19-1.62c6.58-7.17,12.44-15.51,20.45-21.27,2.26-1.62,4.51-3.24,6.96-4.47l8.07-1.94c1.28,1.42,3.29,1.74,5.03,1.23"/>
        <path class="cls-1" d="M526.82,196.47c-3.48.38-6.64-.39-10.06-.52.19-3.95-2.7-6.59-4.26-9.83.58-.84,1.48-1.55,2.26-2.13,4.45,3.88,6.77,9.57,12.06,12.49"/>
        <path class="cls-1" d="M284.63,193.95c-5.22,2.91-10.57,5.63-15.86,8.28v.2c-1.49-.33-3.03-.64-4.58-.64-.52,1.22-.96,2.46-1.74,3.54l-.06-.13-14.26,6.4-9.54,3.94c-2.9-.58-5.86-1.55-8.52-2.33l16.77-6.4,18.57-7.63,17.74-7.83,5.74-2.65-4.26,5.24"/>
        <path class="cls-1" d="M556.94,195.04l3.29-.45c3.16,2.2,6.07,5.3,8.64,8.28-3.61-.52-6.32-3.69-10.12-3.88-2.19-.13-4.25.2-6.25.52-2.45-1.03-4.99-1.8-7.16-3.37-1.57-1.14-2.54-.74-1.12.38,3.62,2.86,8.13,3.77,12.2,5.64,1.55,3.88,4.59,7.18,5.49,11.38.32,1.49.45,3.11.52,4.72-.39-.65-1.03-1.23-1.61-1.68-1.29-4.92-4.65-9.19-7.29-13.71-3.94-1.89-8.11-3.27-11.84-5.7-1.75-1.15-2.7-.64-1.15.46,3.8,2.7,8.18,4.11,12.35,6.03,2.71,5.04,6.71,9.5,7.35,15.39l.32,4.07-3.23-5.05c-.9-5.5-4.57-9.82-8.25-14.16-4.02-1.85-8.4-3.02-12.22-5.31-1.57-.94-2.35-.32-.9.59,3.87,2.43,8.22,3.72,12.36,5.43,4.39,4.98,8.64,10.16,8.32,17.14v1.36c-7.61-11.26-18.96-19.66-32.89-18.63-4.52.13-8.9.77-13.55.58.51-.77,1.07-2.16.19-2.65-.58,2.19-2.77,3.68-2.96,6.01-.59,3.69-.59,7.56-1.04,11.32-3.8-5.37-4.9-11.97-5.29-18.75,1.94-.2,3.92-.36,6.83-.03,0,0,0-1.03-2.06-1.01,1.61-.77,3.23-1.61,4.77-2.58,9.16-.52,19.86,2.97,27.54-2.46.64-.58,1.16-1.29,1.49-2.07,5.48,1.49,11.1,3.1,17.29,2.19"/>
        <path class="cls-1" d="M282.5,212.18c.9,2.52.9,5.5.77,8.41-4.26,1.23-7.55,4.66-11.23,7.31-2.06-.19-3.99-.9-5.73-1.94,1.16-1.49,2.52-2.91,3.87-4.4.19,1.17.19,2.52,0,3.62,0,0,1.13-1.32,1.09-2.99-.13-1.51-.61-2.94-1.67-4-2.5-2.34-5.23-4-8.06-5.54-2.8-1.53-2.7-.43-.71.75l2.71,1.55c-1.55.71-3.29,1.3-5.03,1.55-.77-1.55-1.42-3.1-1.87-4.78,3.23-2.14,7.29-4.79,8.32-8.73,6.78.84,13.36,3.1,17.54,9.18"/>
        <path class="cls-1" d="M423.3,208.56c-.58.13-1.16.58-1.35,1.16-.45,1.62.52,2.91,1.55,4.07,1.42,1.3,3.09,2.27,5.03,1.82.7-.13,1.29-.91,1.35-1.55v-.19c.39.9.65,2,.39,2.97-.2.77-.84,1.55-1.61,1.81-2.71.91-5.29-.38-7.29-2.13-1.86-1.74-3.35-4.14-2.25-6.66.9-1.36,2.64-1.68,4.19-1.29"/>
        <path class="cls-1" d="M428.91,212.06c-1.42-.58-2.97-1.68-4.65-1.03-.45.39-.51.84-.51,1.42-.65-.9-1.04-2.33-.46-3.3,1.35-.58,2.64.19,3.74.9.71.58,1.35,1.3,1.87,2"/>
        <path class="cls-1" d="M238.71,216.59c2.77,3.16,6.06,6.92,10.25,7.43,4.45.45,9.29,0,12.45,3.37.84,1.16.84,2.71.84,4.07l-1.16,8.02c-7.36,2.91-15.42,4.33-22.64,7.63l-5.68,2.71c1.42-3.69,4.13-7.96,8.26-9.12,3.46-1.56,7.54-2.35,10.33-5.21.44-.45.77-1.12.44-1.97-.21.45-.51.78-.84,1.1-1.42-1.68-2.51-3.55-3.8-5.3-5.23.71-8.13-4.52-11.42-7.76-4.64-.78-10.97-2-14.51,1.94-3.93,3.69-6.97,7.89-11.03,11.38.26-3.3.71-6.54,2.32-9.25,3.22-4.6,8.25-8.61,11.54-13.13,4.84,1.36,9.61,3.04,14.64,4.08"/>
        <path class="cls-1" d="M415.37,220.4c1.23,2.33,1.29,5.76-.06,7.95-1.49,2.46-4,3.82-6.9,3.42-3.03-.38-6.06-2.71-7.23-5.62-1.15-2.33-1.15-5.76.33-7.96,1.61-2.52,4.45-3.69,7.42-3.04,2.71.52,5.29,2.72,6.45,5.24"/>
        <path class="cls-1" d="M421.36,217.49c-1.54,1.49-3.16,2.85-4.83,4.02-.26-.91-.58-1.68-1.09-2.4l4.19-3.43c.58.58,1.1,1.29,1.74,1.81"/>
        <path class="cls-1" d="M211.49,225.44l-12.32,4.01-19.74,5.89-22.06,5.95-57.02,14.55-19.42,5.44-15.87,4.85-15.35,5.23c-16.45,6.02-32.51,13.19-47.67,22.12,3.16-12.1,8.38-23.28,16.19-33.44l8.13-10.93,14.26-1.74,16.9-1.55,38.18-2.98,19.22-2,15.48-2.07,15.41-2.52,16.96-3.37,15.03-3.56,17.29-4.65,15.16-4.66,8.38-2.78c-2.58,2.65-5.22,5.3-7.16,8.21"/>
        <path class="cls-1" d="M388.55,222.6c2.23,2.95,2.3,7.89.25,10.97-1.66,2.7-4.41,4.36-7.54,4.36-2.94-.07-5.5-1.48-7.22-3.92-1.73-2.56-2.24-6.53-.96-9.42,1.15-3.08,4.35-5.52,7.54-5.77,3.26-.2,6.08,1.08,7.93,3.78"/>
        <path class="cls-1" d="M359.45,220.33c.13,1.62-.84,2.91-1.68,4.14-.26-.65-.64-1.81-1.61-2.13-2.06-.32-3.55,1.36-4.9,2.78,1.23-2.46,3.74-4.98,6.51-5.36.65,0,1.42-.13,1.68.58"/>
        <path d="M386.28,224.6c1.1,2.26.78,5.36-.96,7.24-1.36,1.49-3.03,2.32-5.03,2.13-1.8-.13-3.48-1.23-4.45-2.78-1.03-1.56-1.29-3.81-.7-5.62.64-2.27,2.83-4.27,5.15-4.47,2.58-.19,4.91,1.17,6,3.5"/>
        <path class="cls-1" d="M234.97,222.47c-.65.52-1.42,1.03-1.94,1.74-8.13.78-14.12,6.66-20.32,12.22l-7.81,7.43c.26-3.17-.06-6.85,2-9.37.84-1.1,1.68-2.14,2.64-3.11-.32,1.68-.38,3.5-.38,5.37,4.84-3.04,8.19-8.28,12.45-12.29,3.23-3.81,9.1-2.65,13.35-2"/>
        <path class="cls-1" d="M382.99,222.47c1.04,2.45,1.36,5.43.91,8.28-1.23-2.07-3.1-4.85-5.74-4.98-1.1,0-1.94.64-2.71,1.49.45-2.33,2.32-4.92,4.84-5.3.97-.13,1.87.13,2.71.52"/>
        <path class="cls-1" d="M232.32,225.32c-.32.64-.65,1.36-.77,2.07-4.46,1.36-8.06,4.85-11.87,7.89l-12.64,11.77-.06-3.69c6.84-6.47,13.42-13.71,21.54-17.13,1.23-.39,2.46-.78,3.81-.9"/>
        <path class="cls-1" d="M371.83,225.77c-.26.9-.32,1.87-.32,2.91-3.04-.2-6-.58-9.03-.71l1.49-2.39c2.64,0,5.28,0,7.86.2"/>
        <path class="cls-1" d="M400.21,225.57c.32.9.71,1.81,1.29,2.59-3.35.84-6.96,1.16-10.58,1.36.13-.91,0-1.93-.06-2.91,3.23-.06,6.32-.45,9.36-1.03"/>
        <path class="cls-1" d="M427.75,237.53c-3.87,1.1-7.61,2.78-10.77,5.7-1.29-3.82-2.45-7.76-3.8-11.64,1.8-1.22,3.35-3.3,3.67-5.5,2.78,4.2,6.26,9.18,10.91,11.44"/>
        <path class="cls-1" d="M231.35,228.55c-.13,1.49.13,2.91.45,4.27-7.29,1.49-12.7,8.14-17.99,13.84-.32-1.23-.51-2.58-.58-4.01,5.74-5.24,11.22-11.19,18-14.1h.13"/>
        <path class="cls-1" d="M372.67,246.27c2.71,8.02,3.87,16.62,4.45,25.55l-16.58,6.73-26.12,10.34-16.64,7.12c-13.35,5.94-26.42,12.44-38.92,20.44-2.55,1.66-2.55,3.22-2.55,3.22l1.55-.96c-1.75,11.83-4,23.47-7.61,34.6l-13.48,15.97-13.87,16.23c-7.1,8.74-13.74,17.66-19.22,26.97-3.35-.65-6.32-2.19-9.29-3.69l4.9-13.58,10.26-30.39c5.73-16.04,12.9-31.49,21.67-46.25,2-3.29,4.19-6.46,6.71-9.57l-1.42,9.57c3.58-2.21,7.03-4.85,10.31-7.96,3.6-3.41,2.55-4.19-1.12-.76-2.39,2.24-4.88,4.22-7.44,6.01l2.39-15.84c5.03-4.39,9.81-9.45,14.38-14.29l28.84-31.3,4.25-4.34c7.16-4.72,15.09-7.62,22.96-10.87,6.06-2.26,12.19-4.46,18.32-6.46,1.1,1.23,2.9,1.42,4.52,1.17,2.64-.58,4.9-2.2,7.03-4.2,6.19,3.75,9.29,10.41,11.74,16.56"/>
        <path class="cls-1" d="M440.65,238.89c7.36,17.07,11.68,35.37,14.71,54.27l2.51,17.39,2.39,17.33c.89,4.55,1.55,9.22,3.26,13.41,1.34,3.63,3.32,3.66,3.32,3.66-1.55-2.32-2.51-4.9-3.23-7.62,7.42,1.03,14.71,2.58,21.55,5.11l5.41,6.46,10.84,14.23c2.26,2.71,4.97,5.66,7.69,8.24.06-.06,0,0,0,0,.19,3.63.57,7.22-.46,10.58-.71.83-1.81,1.16-2.84,1.42-10.45-4.2-21.74-6.79-32.96-9.12-6.58-2.2-12.25-6.66-17.67-11.71,4.39.84,9.03,1.24,13.68,1.49-2.47-2.58-5.16-5.17-7.34-7.98-2.09-2.68-3.26-2.08-1.23.58,1.52,2,3.32,3.89,5.16,5.78-7.09-.39-13.99-1.62-20.25-4.27-3.74-10.15-8.97-19.79-14.52-29.16l-8.25-13.2-10.65-15.58-14.96-20.63-3.42-4.66c5.94-13.38,17.74-27.16,31.15-34.15,4.58-2.46,10.77-3.56,16.12-1.87"/>
        <path class="cls-2" d="M323.83,71.09c0,1.23-.88,2.22-1.97,2.22s-1.97-1-1.97-2.22.88-2.22,1.97-2.22,1.97,1,1.97,2.22"/>
        <path class="cls-2" d="M290.85,75.45c0,.94-.61,1.7-1.37,1.7s-1.37-.76-1.37-1.7.62-1.7,1.37-1.7,1.37.76,1.37,1.7"/>
        <path class="cls-1" d="M290.82,49.88c3.61,3.33,10.81,2.5,14.97,0,4.15-2.5,24.45-15.2,35.81-25.98,1.92-1.83,3.47-3.69,4.72-5.57-4.83-5.71-9.99-11.27-15.45-16.71l-10.51,6.01-15.23,9.19c-7.79,5.06-15.64,9.99-22.74,16.62,1.98,4.97,5.85,14.06,8.43,16.45"/>
        <path class="cls-1" d="M283.34,126.17c-1.23-.45-2.45-.97-3.61-1.68l-1.23,3.1c-5.41-17.39-2.83-38.61.33-56.26,1.23-6.66,2.78-13.32,4.45-19.85-.11-1.44-.1-2.9-.04-4.31l-.3-1.71s-3.38,14.17-7.07,25.56c-3.68,11.4-5.58,31.15-5.58,41.63s1.07,13.17,1.07,13.17c0,0,17.72,6.81,31.55,7.74,13.82.93,25.33-.98,25.33-.98-15.35-.71-31.22-1.68-44.89-6.4"/>
        <path class="cls-1" d="M353.13,72.28c-10.94-16.84-26.03-28.85-26.03-28.85l-.58.78c.08-.03.16-.07.23-.1,18.13,16.88,27.21,37.77,31.47,60.53l.45,3.43c-8.32,9.26-17.38,17.92-27.22,24.3,5.63-3.06,12.36-7.16,18.48-12.09,10.68-8.61,18.4-13.38,18.4-13.38,0,0-4.27-17.79-15.21-34.62"/>
        <path class="cls-1" d="M356.99,151.41c-.04-.06-.09-.11-.14-.17-2.13-.02-17.11-.14-22.58,1.25-5.89,1.5-10.96,1.33-13.12,1.17-.62-.04-1.48-.16-2.37-.29-.38,1.11-.77,2.23-1.19,3.33,5.48.13,10.77-.52,15.73-1.68,6.73-2.97,15.4-2.21,23.09-2.94.28-.3.47-.53.58-.67"/>
        <path class="cls-4" d="M295.15,80.17c.8.66,1.48,1.22,1.86,1.58l-1.67-2.2c-.06.21-.13.42-.19.62"/>
        <path d="M317.34,109.64c.83.44.25.75-.24.72-4.99-.23-10.34-1.31-15.06.29.39-1.49,1.61-2.97,3.1-3.62,4.48-1.54,8.54.66,12.2,2.61"/>
        <path d="M307.79,113.6c1.52.47,3.21.65,4.9.54.77-.04.76.49,0,.66-1.72.39-3.25.14-5-.55-1.15-.46-1.04-1,.1-.65"/>
        <path d="M450.29,125.73c4.26-.09,4.11,1.26-.08,1.36l-2.33.05c4,3.04,7.67,6.73,11.99,8.99-.77-.91-1.81-1.88-2.52-2.85l7.93.46c-.79-1.96-1.61-3.91-2.47-5.84-2.14-.54-5.38-1.19-5.38-1.19l1.69-1.41s-2.82-1.97-6.2-2.26c-3.38-.28-17.73.28-33.21,4.23-14.11,3.6-38.51,11.89-42.71,13.33l.24,1.29c9.35-2.72,18.51-5.69,27.99-8.02"/>
        <path class="cls-1" d="M327.76,158.26c-1.99.23-5.78.7-8.19.99-.18.76-.41,1.48-.63,2.16,2.36-.65,4.78-1.26,7.14-1.92,1.81-.51,2.91-.68,3.29-.61.6-.16.98-.27.98-.27,0,0-.31.13-.83.34.06.21-1.03.75-3.33,1.42-.03.01-.07.02-.09.03-3.05,1.3-6.99,2.98-9.04,3.94-2.35,1.09-5.75,4.38-7.9,6.61-.62.91-1.2,1.82-1.7,2.75l4.9-.97.33-.26c4.71-7.05,12.83-8.21,19.41-11.9l.15-2.94c-1.16.19-2.82.43-4.49.63"/>
        <path class="cls-1" d="M376.84,138.07s12.3-9.37,17.75-12.43c5.44-3.06,20.41-10.62,22.7-11.76,2.29-1.15,4.87-2.68,4.87-2.68l6.01,2.49s-16.03,7.74-22.9,11.19c-6.87,3.44-26.33,12.43-26.33,12.43l-2.1.76"/>
        <path class="cls-1" d="M399.69,108.71c-.48.18-.93.42-1.4.64l-.03-.02c-.11.06-.21.13-.32.18-.45.23-.9.49-1.33.75-.27.16-.55.32-.81.5-.43.27-.84.58-1.25.88-.27.2-.55.39-.81.59-.38.3-.75.6-1.13.91-.31.24-.62.49-.93.75-.01.02-.03.02-.04.04t-.01,0c-.56.47-1.12.95-1.69,1.44.03-1.39,3.28-4.2,3.28-4.2-4.18.52-8.21,1.35-12.21,2.21-3.94,3.22-11.96,9.53-17.93,12.45-8.2,4.02-24.55,9.83-26.2,10.59-1.65.77-4.46,1.79-4.2,2.55.25.76,6.61,3.19,9.16,3.82,2.55.64-5.21,3.19-8.01,3.57-1.56.22-3.14.3-4.25.35,3.1.13,6.25.16,9.45.04,4.52-.16,4.59.86,0,1.05-1.17.06-2.36.07-3.54.07-2.25.29-4.64.62-6.49.92-4.84.77-9.04,1.91-9.04,1.91,0,0,5.91.46,9.02.51.56-.2,1.75-.45,3.6-.66,7.53-.87,14.96-2.13,22.91-1.61-1.03-2.39-1.55-5.17-1.1-7.95.52-4.27,3.61-8.54,7.74-10.09,3.94-1.46,8.2-.32,11.17,2.6,1.58-1.82,7.36-8.4,11.28-12.01.67-.63,1.47-1.33,2.33-2.06-2.35,2.84-5.26,6.44-7.65,9.42,2.46-2.24,4.96-4.43,7.38-6.73,2.85-2.7,3.41-1.9.52.84-3.87,3.67-7.94,6.98-11.59,10.86,3.4-2.76,16.87-13.57,24.07-17.99,3.77-2.31,7.7-4.07,10.87-5.32-3.49-.88-7.08-1.51-10.84-1.81"/>
        <path d="M321.26,174.87c-.58-.2-1.22-.64-1.22-1.29.19-2.45,1.94-4.53,2.51-6.86-2.06.98-4.07,2.01-5.93,3.37-.07.49-.2.98-.36,1.46.73-.53,1.58-1.12,2-1.32.82-.41,1.44-.76,1.44-.76,0,0-2.19,3.22-1.92,5.21.26,1.86.88,2.04,2.08,2.34,1.28-.59,2.55-1.43,3.72-1.82-.84-.07-1.61-.07-2.32-.32"/>
        <path d="M315.39,179.1c-1.09.35-5.03,1.67-6.67,3.06-1.91,1.62-2.67,3.15-5.15,4.4-2.48,1.24-8.49,3.63-12.02,6.6-2.9,2.44-10.26,10.32-12.77,13.03l1.28.94c3.87-3.95,7.87-7.89,12.06-11.19,5.09-4.72,11.67-5.82,17.48-8.79.97-4.59,6.06-4.85,8.77-8.08-.96.29-2.01.3-2.97.03"/>
        <path d="M240.46,223.32c-2.37-2.14-3.32-3.93-5.1-4.76s-10.08-2.38-10.08-2.38c0,0-6.88,5.71-9.25,8.33-1.94,2.14-4.83,8.16-5.82,10.3,0,.03,0,.06,0,.08,4.06-3.5,7.1-7.7,11.03-11.38,3.54-3.94,9.87-2.72,14.51-1.94,3.29,3.24,6.19,8.47,11.42,7.76,1.29,1.75,2.39,3.62,3.8,5.3.33-.33.63-.65.84-1.1.03.08.03.15.05.23.85-1.59-.83-5.09-4.15-5.8-3.32-.71-4.86-2.49-7.23-4.63"/>
        <path d="M261.09,239.48l1.16-8.02c0-1.06-.01-2.23-.41-3.24-.26,1.77-1.15,6.75-3,7.82-2.25,1.31-4.74,1.43-13.99,5.35-6.68,2.83-10.25,6.46-11.74,8.26l5.33-2.55c7.22-3.3,15.28-4.73,22.64-7.63"/>
        <path d="M518.63,183.34l4.25,1.87c.84-1.29,1.29-2.65,1.42-4.2-.35-.35-.65-.71-.97-1.07-2.47-1.32-5.32-1.51-8.17-.93-2.86.57-7.06,6.69-7.06,6.69,0,0-.57-.39-1.33-1.72-.76-1.34-.76-6.89-.76-6.89,0,0-.57,1.53-.96,2.68-.38,1.14-.76,2.87-.76,2.87,0,0-.19-1.53-1.14-3.45-.62-1.24-.84-3.6-.91-5.11-3.42,2.66-3.6,7.26-3.6,11.45,3.16,2.65,5.29,6.01,7.68,9.12,1.55-.26,3.03-.65,4.45-1.17.19-2.39.51-4.98,0-7.31,2.12-3.43,5.8-4.85,9.61-4.98-.71.58-1.61,1.29-1.74,2.13"/>
        <path d="M513.86,184.7c-.5.42-1,.89-1.36,1.42,1.55,3.24,4.45,5.88,4.26,9.83,1.8.06,3.53.31,5.27.48-.73-.76-1.67-1.8-2.66-3.07-1.68-2.14-4.47-6.87-5.51-8.66"/>
        <path d="M551.61,215.55c-2.67-3.25-5.54-6.89-5.54-6.89,0,0-.58-.19-3.81-1.53-3.24-1.34-6.68-3.83-6.68-3.83,0,0-8.02-.77-12.59-.96-4.58-.19-11.26-.95-11.83-.76-.58.19-4.2,1.53-4.2,1.53l.33,6.24c.04-.31.06-.62.12-.93.19-2.33,2.38-3.82,2.96-6.01.88.49.32,1.87-.19,2.65,4.64.19,9.03-.45,13.55-.58,13.4-1,24.41,6.76,32.01,17.37-1.03-1.85-2.57-4.43-4.12-6.31"/>
        <path d="M562.11,197.76c-1.15-.76-2.11-1.72-4.21-1.15-2.07.57-11.62.02-11.81,0,1.99,1.24,4.22,1.98,6.4,2.89,2-.32,4.06-.64,6.25-.52,3.78.2,6.48,3.32,10.05,3.86-2.05-1.59-5.86-4.54-6.69-5.09"/>
        <path d="M328.12,270.46c-27.48,13.27-58.88,46.44-61.29,49.67-2.42,3.22-4.03,5.64-4.03,5.64l6.84-3.22s-3.22,16.55-13.68,34.3c-9.86,16.74-33.3,50.67-35.97,54.51,1.19.46,2.4.86,3.68,1.11,5.48-9.31,12.12-18.23,19.22-26.97l13.87-16.23,13.48-15.97c3.61-11.13,5.86-22.77,7.61-34.6l-1.55.96s0-1.56,2.55-3.22c6.25-4,12.65-7.63,19.16-11,44.73-26.24,39.79-26.26,63.16-45.7-.1-.36,2.04-1.59,1.94-1.95-7.16,3.43-14.17,2.6-35,12.66"/>
        <path d="M481.78,345.45c2.58.41,4.83.75,6.77,1.04l-3.4-4.06c-6.84-2.53-14.13-4.07-21.55-5.11.71,2.72,1.68,5.3,3.23,7.62,0,0-1.98-.04-3.32-3.66-1.71-4.19-2.37-8.86-3.26-13.41l-2.39-17.33-2.51-17.39c-3.03-18.89-7.35-37.2-14.71-54.27-4.45-1.4-9.46-.86-13.67.78,2.22,3.53,8.4,14.9,17.4,43.8,11.45,36.74,18.32,61.99,20.6,65.06,2.29,3.05,3.05-.78,3.05-.78,0,0,3.82-3.82,13.74-2.3"/>
        <path class="cls-1" d="M362.53,226.31c.87-1.41,1.87-3.3,1.59-5.05-.25-.32-.73-.56-1.58-.21-.68.28-1.36,3.88-4.08,6.2-2.02,1.72-5.23,3.75-7.21,2.66-.67-.37-.58-1.75-.51-2.33-.15-.18-.29-.37-.36-.6-.57,1.18-1.2,3.05-.44,4.48.44.62,1.21,1.18,2.03,1.25,4.37.13,7.98-2.93,10.57-6.42"/>
        <path d="M412.79,219.62c1.1,1.49,1.61,3.43,1.16,5.37-.39,1.55-1.87,3.04-3.42,3.3-2.39.45-4.51-.71-5.87-2.65-1.03-1.42-1.36-3.56-.78-5.3.58-1.68,2.26-2.91,4-3.04,1.94,0,3.61.78,4.9,2.33"/>
        <path class="cls-1" d="M410.14,218.72c1.29,1.81,2.06,3.94,1.93,6.33-1.8-1.62-3.93-3.55-6.52-2.52l-.77.71c0-1.74.45-3.55,2.13-4.53.97-.52,2.26-.39,3.23,0"/>
        <path class="cls-5" d="M327.65,65.58l-2.97,1.55c1.03.19,1.94.71,2.58,1.54.23.32.39.7.52,1.1,1.13-.47,1.92-.78,2.5-1-.5-1.29-1.37-2.42-2.64-3.2"/>
        <path class="cls-5" d="M293.2,78.5c.56.47,1.05.91,1.35,1.19.06-.26.12-.52.14-.79l-1.29-1.68c0,.49-.08.9-.2,1.29"/>
        <path d="M371.27,138.87c-.55-1.14-1.43-2.15-2.49-2.85.15.58.74,2.98.64,4.52-.21,3.04-1.85,4.18-1.85,4.18,0,0-1.54-3.25-4.74-3.15-2.35.07-3.48,1.68-3.92,2.57.21,1.34.69,2.64,1.44,3.66,1.13,1.67,2.85,2.68,4.81,2.79,2.55.24,4.75-1.42,6.05-3.57,1.31-2.33,1.31-5.84.06-8.16"/>
        <path class="cls-2" d="M365.25,135.96c.14.38-.43.95-1.27,1.26-.85.31-1.64.25-1.79-.14-.14-.39.43-.95,1.27-1.27.85-.3,1.64-.24,1.79.15"/>
        <path class="cls-6" d="M282.4,33.43c3.59,9.4,5.85,14.06,8.43,16.45,3.61,3.33,10.81,2.5,14.97,0,4.15-2.5,25.45-15.24,35.81-25.98-27.48,18.93-46.88,38.39-59.21,9.53"/>
      </g>
    </g>
  </g>
</svg>